999
dxflib 3.7.5.0
  0
SECTION
  2
HEADER
  9
$ACADVER
  1
AC1015
  9
$HANDSEED
  5
FFFF
  9
$DIMADEC
 70
0
  9
$DIMASZ
 40
2.5
  9
$DIMAUNIT
 70
0
  9
$DIMAZIN
 70
2
  9
$DIMDEC
 70
4
  9
$DIMEXE
 40
1.25
  9
$DIMEXO
 40
0.625
  9
$DIMGAP
 40
0.625
  9
$DIMLUNIT
 70
2
  9
$DIMSCALE
 40
1.0
  9
$DIMTSZ
 40
0.0
  9
$DIMTXT
 40
2.5
  9
$DIMZIN
 70
8
  9
$DWGCODEPAGE
  3
ANSI_1252
  9
$INSUNITS
 70
4
  9
$LTSCALE
 40
1
  0
ENDSEC
  0
SECTION
  2
TABLES
  0
TABLE
  2
VPORT
  5
8
100
AcDbSymbolTable
 70
1
  0
VPORT
  5
30
100
AcDbSymbolTableRecord
100
AcDbViewportTableRecord
  2
*Active
 70
0
 10
0.0
 20
0.0
 11
1.0
 21
1.0
 12
286.3055555555554861
 22
148.5
 13
0.0
 23
0.0
 14
10.0
 24
10.0
 15
10.0
 25
10.0
 16
0.0
 26
0.0
 36
1.0
 17
0.0
 27
0.0
 37
0.0
 40
297.0
 41
1.92798353909465
 42
50.0
 43
0.0
 44
0.0
 50
0.0
 51
0.0
 71
0
 72
100
 73
1
 74
3
 75
1
 76
1
 77
0
 78
0
281
0
 65
1
110
0.0
120
0.0
130
0.0
111
1.0
121
0.0
131
0.0
112
0.0
122
1.0
132
0.0
 79
0
146
0.0
  0
ENDTAB
  0
TABLE
  2
LTYPE
  5
5
100
AcDbSymbolTable
 70
3
  0
LTYPE
  5
16
100
AcDbSymbolTableRecord
100
AcDbLinetypeTableRecord
  2
Continuous
 70
0
  3
Solid line
 72
65
 73
0
 40
0.0
  0
LTYPE
  5
15
100
AcDbSymbolTableRecord
100
AcDbLinetypeTableRecord
  2
BYLAYER
 70
0
  3

 72
65
 73
0
 40
0.0
  0
LTYPE
  5
14
100
AcDbSymbolTableRecord
100
AcDbLinetypeTableRecord
  2
BYBLOCK
 70
0
  3

 72
65
 73
0
 40
0.0
  0
ENDTAB
  0
TABLE
  2
LAYER
  5
2
100
AcDbSymbolTable
 70
7
  0
LAYER
  5
31
100
AcDbSymbolTableRecord
100
AcDbLayerTableRecord
  2
layer 1
 70
1
 62
-7
420
0
  6
Continuous
370
25
390
F
  0
LAYER
  5
32
100
AcDbSymbolTableRecord
100
AcDbLayerTableRecord
  2
epaisseur40
 70
0
 62
7
420
0
  6
Continuous
370
25
390
F
  0
LAYER
  5
33
100
AcDbSymbolTableRecord
100
AcDbLayerTableRecord
  2
layer 2
 70
0
 62
3
420
65280
  6
Continuous
370
25
390
F
  0
LAYER
  5
34
100
AcDbSymbolTableRecord
100
AcDbLayerTableRecord
  2
layer 3
 70
1
 62
-7
420
0
  6
Continuous
370
25
390
F
  0
LAYER
  5
10
100
AcDbSymbolTableRecord
100
AcDbLayerTableRecord
  2
0
 70
0
 62
7
420
16777215
  6
Continuous
370
25
390
F
  0
LAYER
  5
35
100
AcDbSymbolTableRecord
100
AcDbLayerTableRecord
  2
Construction
 70
0
 62
1
420
16711680
  6
Continuous
370
25
390
F
  0
LAYER
  5
36
100
AcDbSymbolTableRecord
100
AcDbLayerTableRecord
  2
epaisseur27
 70
1
 62
-7
420
0
  6
Continuous
370
25
390
F
  0
ENDTAB
  0
TABLE
  2
STYLE
  5
3
100
AcDbSymbolTable
 70
4
  0
STYLE
  5
37
100
AcDbSymbolTableRecord
100
AcDbTextStyleTableRecord
  2
Standard
 70
0
 40
0.0
 41
1.0
 50
0.0
 71
0
 42
2.5
  3

  4

1001
ACAD
1000
txt
1071
0
  0
STYLE
  5
38
100
AcDbSymbolTableRecord
100
AcDbTextStyleTableRecord
  2
textstyle0
 70
0
 40
0.0
 41
1.0
 50
0.0
 71
0
 42
1.0
  3

  4

1001
ACAD
1000
Standard
1071
0
  0
STYLE
  5
39
100
AcDbSymbolTableRecord
100
AcDbTextStyleTableRecord
  2
textstyle1
 70
0
 40
0.0
 41
1.0
 50
0.0
 71
0
 42
1.0
  3

  4

1001
ACAD
1000
Standard
1071
0
  0
STYLE
  5
3A
100
AcDbSymbolTableRecord
100
AcDbTextStyleTableRecord
  2
textstyle2
 70
0
 40
0.0
 41
1.0
 50
0.0
 71
0
 42
1.0
  3

  4

1001
ACAD
1000
Standard
1071
0
  0
ENDTAB
  0
TABLE
  2
VIEW
  5
6
100
AcDbSymbolTable
 70
0
  0
ENDTAB
  0
TABLE
  2
UCS
  5
7
100
AcDbSymbolTable
 70
0
  0
ENDTAB
  0
TABLE
  2
APPID
  5
9
100
AcDbSymbolTable
 70
1
  0
APPID
  5
12
100
AcDbSymbolTableRecord
100
AcDbRegAppTableRecord
  2
ACAD
 70
0
  0
APPID
  5
3B
100
AcDbSymbolTableRecord
100
AcDbRegAppTableRecord
  2
QCAD
 70
0
  0
ENDTAB
  0
TABLE
  2
DIMSTYLE
  5
A
100
AcDbSymbolTable
 70
1
100
AcDbDimStyleTable
 71
0
  0
DIMSTYLE
105
27
100
AcDbSymbolTableRecord
100
AcDbDimStyleTableRecord
  2
Standard
 41
2.5
 42
0.625
 43
3.75
 44
1.25
 70
0
 73
0
 74
0
 77
1
 78
8
140
2.5
141
2.5
143
0.03937007874016
147
0.625
171
3
172
1
271
2
272
2
274
3
278
44
283
0
284
8
340
37
  0
ENDTAB
  0
TABLE
  2
BLOCK_RECORD
  5
1
100
AcDbSymbolTable
 70
1
  0
BLOCK_RECORD
  5
1F
100
AcDbSymbolTableRecord
100
AcDbBlockTableRecord
  2
*Model_Space
340
22
  0
BLOCK_RECORD
  5
1B
100
AcDbSymbolTableRecord
100
AcDbBlockTableRecord
  2
*Paper_Space
340
1E
  0
BLOCK_RECORD
  5
23
100
AcDbSymbolTableRecord
100
AcDbBlockTableRecord
  2
*Paper_Space0
340
26
  0
ENDTAB
  0
ENDSEC
  0
SECTION
  2
BLOCKS
  0
BLOCK
  5
20
100
AcDbEntity
  8
0
100
AcDbBlockBegin
  2
*Model_Space
 70
0
 10
0.0
 20
0.0
 30
0.0
  3
*Model_Space
  1

  0
ENDBLK
  5
21
100
AcDbEntity
  8
0
100
AcDbBlockEnd
  0
BLOCK
  5
1C
100
AcDbEntity
 67
1
  8
0
100
AcDbBlockBegin
  2
*Paper_Space
 70
0
 10
0.0
 20
0.0
 30
0.0
  3
*Paper_Space
  1

  0
ENDBLK
  5
1D
100
AcDbEntity
 67
1
  8
0
100
AcDbBlockEnd
  0
BLOCK
  5
24
100
AcDbEntity
  8
0
100
AcDbBlockBegin
  2
*Paper_Space0
 70
0
 10
0.0
 20
0.0
 30
0.0
  3
*Paper_Space0
  1

  0
ENDBLK
  5
25
100
AcDbEntity
  8
0
100
AcDbBlockEnd
  0
ENDSEC
  0
SECTION
  2
ENTITIES
  0
CIRCLE
  5
3C
100
AcDbEntity
100
AcDbCircle
  8
Construction
 62
256
370
-1
 48
1.0
  6
BYLAYER
 10
20.0
 20
20.0
 30
0.0
 40
27.0
  0
LINE
  5
3D
100
AcDbEntity
100
AcDbLine
  8
layer 1
 62
256
370
-1
 48
1.0
  6
Continuous
 10
20.0
 20
20.0
 30
0.0
 11
120.0
 21
20.0
 31
0.0
  0
LINE
  5
3E
100
AcDbEntity
100
AcDbLine
  8
layer 1
 62
256
370
-1
 48
1.0
  6
Continuous
 10
20.0
 20
20.0
 30
0.0
 11
50.9016994374947416
 21
115.10565162951535
 31
0.0
  0
LINE
  5
3F
100
AcDbEntity
100
AcDbLine
  8
layer 1
 62
256
370
-1
 48
1.0
  6
Continuous
 10
20.0
 20
20.0
 30
0.0
 11
-60.9016994374947274
 21
78.7785252292473217
 31
0.0
  0
LINE
  5
40
100
AcDbEntity
100
AcDbLine
  8
layer 1
 62
256
370
-1
 48
1.0
  6
Continuous
 10
20.0
 20
20.0
 30
0.0
 11
-60.9016994374947842
 21
-38.778525229247272
 31
0.0
  0
LINE
  5
41
100
AcDbEntity
100
AcDbLine
  8
layer 1
 62
256
370
-1
 48
1.0
  6
Continuous
 10
20.0
 20
20.0
 30
0.0
 11
50.9016994374947274
 21
-75.1056516295153642
 31
0.0
  0
LINE
  5
42
100
AcDbEntity
100
AcDbLine
  8
Construction
 62
256
370
-1
 48
1.0
  6
BYLAYER
 10
47.0
 20
6.0
 30
0.0
 11
47.0
 21
34.0
 31
0.0
  0
LINE
  5
43
100
AcDbEntity
100
AcDbLine
  8
Construction
 62
256
370
-1
 48
1.0
  6
BYLAYER
 10
41.6582500762557331
 20
41.3522880187198822
 30
0.0
 11
15.0286676199914329
 21
50.0047638612184144
 31
0.0
  0
LINE
  5
44
100
AcDbEntity
100
AcDbLine
  8
Construction
 62
256
370
-1
 48
1.0
  6
BYLAYER
 10
6.3855346839710432
 20
47.1964397331460361
 30
0.0
 11
-10.0724523802182073
 21
24.5439638906475146
 31
0.0
  0
LINE
  5
45
100
AcDbEntity
100
AcDbLine
  8
Construction
 62
256
370
-1
 48
1.0
  6
BYLAYER
 10
-10.0724523802182091
 20
15.4560361093525049
 30
0.0
 11
6.3855346839710307
 21
-7.1964397331460273
 31
0.0
  0
LINE
  5
46
100
AcDbEntity
100
AcDbLine
  8
Construction
 62
256
370
-1
 48
1.0
  6
BYLAYER
 10
15.028667619991424
 20
-10.0047638612184091
 30
0.0
 11
41.658250076255726
 21
-1.3522880187198876
 31
0.0
  0
LINE
  5
47
100
AcDbEntity
100
AcDbLine
  8
Construction
 62
256
370
-1
 48
1.0
  6
BYLAYER
 10
-18.1626223239676854
 20
9.5781835864277749
 30
0.0
 11
-1.7046352597784455
 21
-13.0742922560707573
 31
0.0
  0
LINE
  5
48
100
AcDbEntity
100
AcDbLine
  8
Construction
 62
256
370
-1
 48
1.0
  6
Continuous
 10
-1.7046352597784296
 20
53.0742922560707697
 30
0.0
 11
-18.1626223239676818
 21
30.4218164135722482
 31
0.0
  0
LINE
  5
49
100
AcDbEntity
100
AcDbLine
  8
Construction
 62
256
370
-1
 48
1.0
  6
BYLAYER
 10
44.7484200200052058
 20
50.8628531816714187
 30
0.0
 11
18.1188375637409074
 21
59.5153290241699509
 31
0.0
  0
LINE
  5
4A
100
AcDbEntity
100
AcDbLine
  8
Construction
 62
256
370
-1
 48
1.0
  6
BYLAYER
 10
57.0
 20
6.0
 30
0.0
 11
57.0
 21
34.0
 31
0.0
  0
LINE
  5
4B
100
AcDbEntity
100
AcDbLine
  8
epaisseur40
 62
256
370
-1
 48
1.0
  6
BYLAYER
 10
-34.0653150347763187
 20
76.585702347769697
 30
0.0
 11
-50.5233020989655728
 21
53.933226505271179
 31
0.0
  0
LINE
  5
4C
100
AcDbEntity
100
AcDbLine
  8
epaisseur40
 62
256
370
-1
 48
1.0
  6
BYLAYER
 10
57.1090997950031038
 20
88.9051138334775573
 30
0.0
 11
30.4795173387388054
 21
97.5575896759760894
 31
0.0
  0
LINE
  5
4D
100
AcDbEntity
100
AcDbLine
  8
epaisseur40
 62
256
370
-1
 48
1.0
  6
BYLAYER
 10
97.0
 20
6.0
 30
0.0
 11
97.0
 21
34.0
 31
0.0
  0
LINE
  5
4E
100
AcDbEntity
100
AcDbLine
  8
epaisseur40
 62
256
370
-1
 48
1.0
  6
BYLAYER
 10
-50.523302098965587
 20
-13.9332265052711453
 30
0.0
 11
-34.0653150347763471
 21
-36.5857023477696757
 31
0.0
  0
LINE
  5
4F
100
AcDbEntity
100
AcDbLine
  8
Construction
 62
256
370
-1
 48
1.0
  6
BYLAYER
 10
18.1188375637408967
 20
-19.5153290241699438
 30
0.0
 11
44.7484200200051987
 21
-10.862853181671424
 31
0.0
  0
LINE
  5
50
100
AcDbEntity
100
AcDbLine
  8
epaisseur40
 62
256
370
-1
 48
1.0
  6
BYLAYER
 10
30.4795173387387877
 20
-57.5575896759760894
 30
0.0
 11
57.1090997950030896
 21
-48.9051138334775715
 31
0.0
  0
LINE
  5
51
100
AcDbEntity
100
AcDbLine
  8
0
 62
256
370
-1
 48
1.0
  6
BYLAYER
 10
7.072182608274086
 20
-6.6975608143732543
 30
0.0
 11
-25.9751450910268744
 21
-30.707849824844935
 31
0.0
  0
LINE
  5
52
100
AcDbEntity
100
AcDbLine
  8
0
 62
256
370
-1
 48
1.0
  6
BYLAYER
 10
14.7663914512122183
 20
-9.1975608143732543
 30
0.0
 11
27.3893473949893149
 21
-48.0470245130245672
 31
0.0
  0
LINE
  5
53
100
AcDbEntity
100
AcDbLine
  8
0
 62
256
370
-1
 48
1.0
  6
BYLAYER
 10
-9.3858044559151637
 20
15.9549150281252743
 30
0.0
 11
-42.4331321552161214
 21
-8.0553739823464028
 31
0.0
  0
LINE
  5
54
100
AcDbEntity
100
AcDbLine
  8
0
 62
256
370
-1
 48
1.0
  6
BYLAYER
 10
-9.3858044559151601
 20
24.0450849718747506
 30
0.0
 11
-42.4331321552161
 21
48.0553739823464525
 31
0.0
  0
LINE
  5
55
100
AcDbEntity
100
AcDbLine
  8
0
 62
256
370
-1
 48
1.0
  6
BYLAYER
 10
41.3959739074765238
 20
-0.5450849718747381
 30
0.0
 11
54.0189298512536169
 21
-39.3945486705260421
 31
0.0
  0
LINE
  5
56
100
AcDbEntity
100
AcDbLine
  8
0
 62
256
370
-1
 48
1.0
  6
BYLAYER
 10
7.0721826082740993
 20
46.6975608143732615
 30
0.0
 11
-25.9751450910268531
 21
70.7078498248449705
 31
0.0
  0
LINE
  5
57
100
AcDbEntity
100
AcDbLine
  8
0
 62
256
370
-1
 48
1.0
  6
BYLAYER
 10
14.7663914512122307
 20
49.1975608143732615
 30
0.0
 11
27.3893473949893362
 21
88.047024513024553
 31
0.0
  0
LINE
  5
58
100
AcDbEntity
100
AcDbLine
  8
0
 62
256
370
-1
 48
1.0
  6
BYLAYER
 10
41.3959739074765309
 20
40.5450849718747364
 30
0.0
 11
54.0189298512536311
 21
79.3945486705260208
 31
0.0
  0
LINE
  5
59
100
AcDbEntity
100
AcDbLine
  8
0
 62
256
370
-1
 48
1.0
  6
BYLAYER
 10
46.1512564889522992
 20
34.0
 30
0.0
 11
87.0
 21
34.0
 31
0.0
  0
LINE
  5
5A
100
AcDbEntity
100
AcDbLine
  8
0
 62
256
370
-1
 48
1.0
  6
BYLAYER
 10
46.151256488952292
 20
6.0
 30
0.0
 11
87.0
 21
6.0
 31
0.0
  0
LINE
  5
5B
100
AcDbEntity
100
AcDbLine
  8
epaisseur27
 62
256
370
-1
 48
1.0
  6
BYLAYER
 10
77.5948371146301383
 20
90.7556418171355972
 30
0.0
 11
177.5948371146301383
 21
90.7556418171355972
 31
0.0
  0
LINE
  5
5C
100
AcDbEntity
100
AcDbLine
  8
epaisseur27
 62
256
370
-1
 48
1.0
  6
BYLAYER
 10
77.5948371146301383
 20
90.7556418171355972
 30
0.0
 11
85.285989435167096
 21
63.7556418171355972
 31
0.0
  0
LINE
  5
5D
100
AcDbEntity
100
AcDbLine
  8
epaisseur27
 62
256
370
-1
 48
1.0
  6
BYLAYER
 10
85.285989435167096
 20
63.7556418171355972
 30
0.0
 11
114.1382287216434293
 21
71.9744183779085489
 31
0.0
  0
LINE
  5
5E
100
AcDbEntity
100
AcDbLine
  8
epaisseur27
 62
256
370
-1
 48
1.0
  6
BYLAYER
 10
110.0
 20
50.0
 30
0.0
 11
95.541875098436833
 21
100.7556418171355972
 31
0.0
  0
LINE
  5
5F
100
AcDbEntity
100
AcDbLine
  8
epaisseur27
 62
256
370
-1
 48
1.0
  6
BYLAYER
 10
101.1547210427291077
 20
68.2759689255607327
 30
0.0
 11
94.7512177714347388
 21
90.7556418171355972
 31
0.0
  0
LINE
  5
60
100
AcDbEntity
100
AcDbLine
  8
epaisseur27
 62
256
370
-1
 48
1.0
  6
BYLAYER
 10
107.886910209573557
 20
70.1936834564077401
 30
0.0
 11
102.0296822925033666
 21
90.7556418171355972
 31
0.0
  0
LINE
  5
61
100
AcDbEntity
100
AcDbLine
  8
epaisseur27
 62
256
370
-1
 48
1.0
  6
BYLAYER
 10
114.1382287216434293
 20
71.9744183779085489
 30
0.0
 11
116.4794088111754036
 21
63.7556418171355972
 31
0.0
  0
LINE
  5
62
100
AcDbEntity
100
AcDbLine
  8
epaisseur40
 62
256
370
-1
 48
1.0
  6
BYLAYER
 10
126.8772152698448394
 20
103.7556418171355972
 30
0.0
 11
177.5948371146301383
 21
103.7556418171355972
 31
0.0
  0
LINE
  5
63
100
AcDbEntity
100
AcDbLine
  8
epaisseur40
 62
256
370
-1
 48
1.0
  6
BYLAYER
 10
77.5948371146301383
 20
103.7556418171355972
 30
0.0
 11
126.8772152698448394
 21
103.7556418171355972
 31
0.0
  0
LINE
  5
64
100
AcDbEntity
100
AcDbLine
  8
epaisseur40
 62
256
370
-1
 48
1.0
  6
BYLAYER
 10
77.5948371146301383
 20
103.7556418171355972
 30
0.0
 11
88.9891368487589602
 21
63.7556418171355972
 31
0.0
  0
LINE
  5
65
100
AcDbEntity
100
AcDbLine
  8
epaisseur40
 62
256
370
-1
 48
1.0
  6
BYLAYER
 10
88.9891368487589602
 20
63.7556418171355972
 30
0.0
 11
127.4587892307274046
 21
74.7140105648328756
 31
0.0
  0
LINE
  5
66
100
AcDbEntity
100
AcDbLine
  8
epaisseur40
 62
256
370
-1
 48
1.0
  6
BYLAYER
 10
130.5803626834367037
 20
63.7556418171355972
 30
0.0
 11
127.4587892307274046
 21
74.7140105648328756
 31
0.0
  0
LINE
  5
67
100
AcDbEntity
100
AcDbLine
  8
layer 3
 62
256
370
-1
 48
1.0
  6
BYLAYER
 10
96.8296633056143605
 20
109.2348261909842222
 30
0.0
 11
109.784749766097832
 21
63.7556418171355972
 31
0.0
  0
LINE
  5
68
100
AcDbEntity
100
AcDbLine
  8
layer 3
 62
256
370
-1
 48
1.0
  6
BYLAYER
 10
102.0296822925033382
 20
103.7556418171355972
 30
0.0
 11
111.5900576231654213
 21
70.1936834564077401
 31
0.0
  0
LINE
  5
69
100
AcDbEntity
100
AcDbLine
  8
layer 3
 62
256
370
-1
 48
1.0
  6
BYLAYER
 10
94.7512177714347104
 20
103.7556418171355972
 30
0.0
 11
104.8578684563209436
 21
68.2759689255607327
 31
0.0
  0
LINE
  5
6A
100
AcDbEntity
100
AcDbLine
  8
epaisseur27
 62
256
370
-1
 48
1.0
  6
BYLAYER
 10
116.4794088111754036
 20
63.7556418171355972
 30
0.0
 11
130.5803626834367037
 21
63.7556418171355972
 31
0.0
  0
LINE
  5
6B
100
AcDbEntity
100
AcDbLine
  8
0
 62
256
370
-1
 48
1.0
  6
BYLAYER
 10
130.5803626834367037
 20
63.7556418171355972
 30
0.0
 11
177.5948371146301383
 21
63.7556418171355972
 31
0.0
  0
LINE
  5
6C
100
AcDbEntity
100
AcDbLine
  8
epaisseur27
 62
256
370
-1
 48
1.0
  6
BYLAYER
 10
87.0
 20
6.0
 30
0.0
 11
87.0
 21
34.0
 31
0.0
  0
LINE
  5
6D
100
AcDbEntity
100
AcDbLine
  8
epaisseur27
 62
256
370
-1
 48
1.0
  6
BYLAYER
 10
27.3893473949893149
 20
-48.047024513024553
 30
0.0
 11
54.0189298512536169
 21
-39.394548670526035
 31
0.0
  0
LINE
  5
6E
100
AcDbEntity
100
AcDbLine
  8
epaisseur27
 62
256
370
-1
 48
1.0
  6
BYLAYER
 10
-42.4331321552161143
 20
-8.0553739823464152
 30
0.0
 11
-25.9751450910268709
 21
-30.7078498248449492
 31
0.0
  0
LINE
  5
6F
100
AcDbEntity
100
AcDbLine
  8
epaisseur27
 62
256
370
-1
 48
1.0
  6
BYLAYER
 10
-25.9751450910268531
 20
70.7078498248449705
 30
0.0
 11
-42.4331321552161
 21
48.0553739823464454
 31
0.0
  0
LINE
  5
70
100
AcDbEntity
100
AcDbLine
  8
epaisseur27
 62
256
370
-1
 48
1.0
  6
BYLAYER
 10
54.0189298512536311
 20
79.3945486705260208
 30
0.0
 11
27.3893473949893291
 21
88.047024513024553
 31
0.0
  0
LINE
  5
71
100
AcDbEntity
100
AcDbLine
  8
layer 1
 62
256
370
-1
 48
1.0
  6
Continuous
 10
50.9287599075041584
 20
69.8839835075744844
 30
0.0
 11
24.2991774512398564
 21
78.5364593500730166
 31
0.0
  0
LINE
  5
72
100
AcDbEntity
100
AcDbLine
  8
layer 1
 62
256
370
-1
 48
1.0
  6
Continuous
 10
-17.8849751472773733
 20
64.8299973019202298
 30
0.0
 11
-34.3429622114666273
 21
42.1775214594217118
 31
0.0
  0
LINE
  5
73
100
AcDbEntity
100
AcDbLine
  8
layer 1
 62
256
370
-1
 48
1.0
  6
Continuous
 10
-34.3429622114666415
 20
-2.1775214594216852
 30
0.0
 11
-17.8849751472773981
 21
-24.8299973019202156
 31
0.0
  0
LINE
  5
74
100
AcDbEntity
100
AcDbLine
  8
layer 1
 62
256
370
-1
 48
1.0
  6
Continuous
 10
24.2991774512398422
 20
-38.5364593500730166
 30
0.0
 11
50.9287599075041442
 21
-29.8839835075744986
 31
0.0
  0
LINE
  5
75
100
AcDbEntity
100
AcDbLine
  8
layer 1
 62
256
370
-1
 48
1.0
  6
Continuous
 10
77.0
 20
6.0
 30
0.0
 11
77.0
 21
34.0
 31
0.0
  0
CIRCLE
  5
76
100
AcDbEntity
100
AcDbCircle
  8
0
 62
256
370
-1
 48
1.0
  6
BYLAYER
 10
37.6139686793720003
 20
74.2102214288237576
 30
0.0
 40
3.0
  0
CIRCLE
  5
77
100
AcDbEntity
100
AcDbCircle
  8
0
 62
256
370
-1
 48
1.0
  6
BYLAYER
 10
-26.1139686793719967
 20
53.5037593806709779
 30
0.0
 40
3.0
  0
CIRCLE
  5
78
100
AcDbEntity
100
AcDbCircle
  8
0
 62
256
370
-1
 48
1.0
  6
BYLAYER
 10
-26.1139686793720252
 20
-13.5037593806709424
 30
0.0
 40
3.0
  0
CIRCLE
  5
79
100
AcDbEntity
100
AcDbCircle
  8
0
 62
256
370
-1
 48
1.0
  6
BYLAYER
 10
37.6139686793719932
 20
-34.2102214288237576
 30
0.0
 40
3.0
  0
CIRCLE
  5
7A
100
AcDbEntity
100
AcDbCircle
  8
0
 62
256
370
-1
 48
1.0
  6
BYLAYER
 10
77.0
 20
20.0
 30
0.0
 40
3.0
  0
LINE
  5
7B
100
AcDbEntity
100
AcDbLine
  8
epaisseur40
 62
256
370
-1
 48
1.0
  6
BYLAYER
 10
-25.9751450910268531
 20
70.7078498248449705
 30
0.0
 11
-34.0653150347763116
 21
76.585702347769697
 31
0.0
  0
LINE
  5
7C
100
AcDbEntity
100
AcDbLine
  8
epaisseur40
 62
256
370
-1
 48
1.0
  6
BYLAYER
 10
-42.4331321552161
 20
48.0553739823464525
 30
0.0
 11
-50.5233020989655799
 21
53.9332265052711861
 31
0.0
  0
LINE
  5
7D
100
AcDbEntity
100
AcDbLine
  8
epaisseur40
 62
256
370
-1
 48
1.0
  6
BYLAYER
 10
-42.4331321552161214
 20
-8.0553739823464028
 30
0.0
 11
-50.5233020989655941
 21
-13.9332265052711257
 31
0.0
  0
LINE
  5
7E
100
AcDbEntity
100
AcDbLine
  8
epaisseur40
 62
256
370
-1
 48
1.0
  6
BYLAYER
 10
-25.9751450910268744
 20
-30.707849824844935
 30
0.0
 11
-34.0653150347763543
 21
-36.5857023477696615
 31
0.0
  0
LINE
  5
7F
100
AcDbEntity
100
AcDbLine
  8
epaisseur40
 62
256
370
-1
 48
1.0
  6
BYLAYER
 10
27.3893473949893149
 20
-48.0470245130245672
 30
0.0
 11
30.4795173387387877
 21
-57.5575896759760894
 31
0.0
  0
LINE
  5
80
100
AcDbEntity
100
AcDbLine
  8
epaisseur40
 62
256
370
-1
 48
1.0
  6
BYLAYER
 10
54.0189298512536169
 20
-39.3945486705260421
 30
0.0
 11
57.1090997950030896
 21
-48.9051138334775715
 31
0.0
  0
LINE
  5
81
100
AcDbEntity
100
AcDbLine
  8
epaisseur40
 62
256
370
-1
 48
1.0
  6
BYLAYER
 10
87.0
 20
6.0
 30
0.0
 11
97.0
 21
6.0
 31
0.0
  0
LINE
  5
82
100
AcDbEntity
100
AcDbLine
  8
epaisseur40
 62
256
370
-1
 48
1.0
  6
BYLAYER
 10
87.0
 20
34.0
 30
0.0
 11
97.0
 21
34.0
 31
0.0
  0
LINE
  5
83
100
AcDbEntity
100
AcDbLine
  8
epaisseur40
 62
256
370
-1
 48
1.0
  6
BYLAYER
 10
54.0189298512536311
 20
79.3945486705260208
 30
0.0
 11
57.1090997950031038
 21
88.9051138334775573
 31
0.0
  0
LINE
  5
84
100
AcDbEntity
100
AcDbLine
  8
epaisseur40
 62
256
370
-1
 48
1.0
  6
BYLAYER
 10
27.3893473949893362
 20
88.047024513024553
 30
0.0
 11
30.479517338738809
 21
97.5575896759760894
 31
0.0
  0
ARC
  5
85
100
AcDbEntity
  8
0
 62
256
370
-1
 48
1.0
  6
BYLAYER
100
AcDbCircle
 10
10.0111088697364643
 20
50.7426457862479978
 30
0.0
 40
5.0
100
AcDbArc
 50
234.0
 51
342.0
  0
ARC
  5
86
100
AcDbEntity
  8
0
 62
256
370
-1
 48
1.0
  6
BYLAYER
100
AcDbCircle
 10
46.1512564889522992
 20
39.0
 30
0.0
 40
5.0
100
AcDbArc
 50
162.0000000000000284
 51
270.0
  0
ARC
  5
87
100
AcDbEntity
  8
0
 62
256
370
-1
 48
1.0
  6
BYLAYER
100
AcDbCircle
 10
46.151256488952292
 20
1.0
 30
0.0
 40
5.0
100
AcDbArc
 50
90.0
 51
198.0000000000000284
  0
ARC
  5
88
100
AcDbEntity
  8
0
 62
256
370
-1
 48
1.0
  6
BYLAYER
100
AcDbCircle
 10
10.0111088697364501
 20
-10.7426457862479925
 30
0.0
 40
5.0
100
AcDbArc
 50
18.0000000000000284
 51
125.9999999999999716
  0
ARC
  5
89
100
AcDbEntity
  8
0
 62
256
370
-1
 48
1.0
  6
BYLAYER
100
AcDbCircle
 10
-12.3247307173775269
 20
20.0000000000000107
 30
0.0
 40
5.0
100
AcDbArc
 50
306.0
 51
54.0000000000000071
  0
MTEXT
  5
8A
100
AcDbEntity
100
AcDbMText
  8
0
 62
256
370
-1
 48
1.0
  6
BYLAYER
 10
140.5306183789590477
 20
92.8028770720356135
 30
0.0
 40
1.0
 41
0.0
 71
7
 72
1
  1
\H5;l-(2x37mm)
  7
textstyle0
 50
0.0
 73
2
 44
1.0
  0
MTEXT
  5
8B
100
AcDbEntity
100
AcDbMText
  8
epaisseur40
 62
256
370
-1
 48
1.0
  6
BYLAYER
 10
135.4410206219230588
 20
68.6499339498018628
 30
0.0
 40
1.0
 41
0.0
 71
7
 72
1
  1
\H5;Liteau 27x40
  7
textstyle1
 50
0.0
 73
2
 44
1.0
  0
MTEXT
  5
8C
100
AcDbEntity
100
AcDbMText
  8
epaisseur27
 62
256
370
-1
 48
1.0
  6
BYLAYER
 10
135.4410206219230588
 20
68.6499339498018628
 30
0.0
 40
1.0
 41
0.0
 71
7
 72
1
  1
\H5;Liteau 27x27
  7
textstyle2
 50
0.0
 73
2
 44
1.0
  0
LINE
  5
8D
100
AcDbEntity
100
AcDbLine
  8
Construction
 62
256
370
-1
 48
1.0
  6
BYLAYER
 10
77.5948371146301383
 20
53.7556418171355972
 30
0.0
 11
77.5948371146301383
 21
153.7556418171355972
 31
0.0
  0
LINE
  5
8E
100
AcDbEntity
100
AcDbLine
  8
Construction
 62
256
370
-1
 48
1.0
  6
BYLAYER
 10
88.9891368487589602
 20
13.7556418171355972
 30
0.0
 11
88.9891368487589602
 21
113.7556418171355972
 31
0.0
  0
LINE
  5
8F
100
AcDbEntity
100
AcDbLine
  8
layer 2
 62
256
370
-1
 48
1.0
  6
BYLAYER
 10
30.5803626834367037
 20
63.7556418171355972
 30
0.0
 11
130.5803626834367037
 21
63.7556418171355972
 31
0.0
  0
LINE
  5
90
100
AcDbEntity
100
AcDbLine
  8
layer 2
 62
256
370
-1
 48
1.0
  6
BYLAYER
 10
77.5948371146301383
 20
63.7556418171355901
 30
0.0
 11
117.5948371146301383
 21
75.1499415512644049
 31
0.0
  0
LINE
  5
91
100
AcDbEntity
100
AcDbLine
  8
layer 2
 62
256
370
-1
 48
1.0
  6
BYLAYER
 10
120.84058877540933
 20
63.7556418171355972
 30
0.0
 11
117.5948371146301383
 21
75.1499415512644049
 31
0.0
  0
LINE
  5
92
100
AcDbEntity
100
AcDbLine
  8
layer 2
 62
256
370
-1
 48
1.0
  6
BYLAYER
 10
101.6057625844250936
 20
58.2764574432869651
 30
0.0
 11
88.6506761239416505
 21
103.7556418171355972
 31
0.0
  0
LINE
  5
93
100
AcDbEntity
100
AcDbLine
  8
layer 2
 62
256
370
-1
 48
1.0
  6
BYLAYER
 10
98.2396680010028547
 20
57.3176001778634543
 30
0.0
 11
85.2845815405194116
 21
102.7967845517120935
 31
0.0
  0
LINE
  5
94
100
AcDbEntity
100
AcDbLine
  8
layer 2
 62
256
370
-1
 48
1.0
  6
BYLAYER
 10
104.9718571678473324
 20
59.2353147087104759
 30
0.0
 11
92.0167707073638894
 21
104.7144990825591009
 31
0.0
  0
ENDSEC
  0
SECTION
  2
OBJECTS
  0
DICTIONARY
  5
C
100
AcDbDictionary
280
0
281
1
  3
ACAD_GROUP
350
D
  3
ACAD_LAYOUT
350
1A
  3
ACAD_MLINESTYLE
350
17
  3
ACAD_PLOTSETTINGS
350
19
  3
ACAD_PLOTSTYLENAME
350
E
  3
AcDbVariableDictionary
350
95
  3
QCAD_OBJECTS
350
96
  0
DICTIONARY
  5
D
100
AcDbDictionary
280
0
281
1
  0
ACDBDICTIONARYWDFLT
  5
E
100
AcDbDictionary
281
1
  3
Normal
350
F
100
AcDbDictionaryWithDefault
340
F
  0
ACDBPLACEHOLDER
  5
F
  0
DICTIONARY
  5
17
100
AcDbDictionary
280
0
281
1
  3
Standard
350
18
  0
MLINESTYLE
  5
18
100
AcDbMlineStyle
  2
STANDARD
 70
0
  3

 62
256
 51
90.0
 52
90.0
 71
2
 49
0.5
 62
256
  6
BYLAYER
 49
-0.5
 62
256
  6
BYLAYER
  0
DICTIONARY
  5
19
100
AcDbDictionary
280
0
281
1
  0
DICTIONARY
  5
1A
100
AcDbDictionary
281
1
  3
Layout1
350
1E
  3
Layout2
350
26
  3
Model
350
22
  0
LAYOUT
  5
1E
100
AcDbPlotSettings
  1

  2
none_device
  4

  6

 40
0.0
 41
0.0
 42
0.0
 43
0.0
 44
0.0
 45
0.0
 46
0.0
 47
0.0
 48
0.0
 49
0.0
140
0.0
141
0.0
142
1.0
143
1.0
 70
688
 72
0
 73
0
 74
5
  7

 75
16
147
1.0
148
0.0
149
0.0
100
AcDbLayout
  1
Layout1
 70
1
 71
1
 10
0.0
 20
0.0
 11
420.0
 21
297.0
 12
0.0
 22
0.0
 32
0.0
 14
100000000000000000000.0
 24
100000000000000000000.0
 34
100000000000000000000.0
 15
-100000000000000000000.0
 25
-100000000000000000000.0
 35
-100000000000000000000.0
146
0.0
 13
0.0
 23
0.0
 33
0.0
 16
1.0
 26
0.0
 36
0.0
 17
0.0
 27
1.0
 37
0.0
 76
0
330
1B
  0
LAYOUT
  5
22
100
AcDbPlotSettings
  1

  2
none_device
  4

  6

 40
0.0
 41
0.0
 42
0.0
 43
0.0
 44
0.0
 45
0.0
 46
0.0
 47
0.0
 48
0.0
 49
0.0
140
0.0
141
0.0
142
1.0
143
1.0
 70
1712
 72
0
 73
0
 74
0
  7

 75
0
147
1.0
148
0.0
149
0.0
100
AcDbLayout
  1
Model
 70
1
 71
0
 10
0.0
 20
0.0
 11
12.0
 21
9.0
 12
0.0
 22
0.0
 32
0.0
 14
0.0
 24
0.0
 34
0.0
 15
0.0
 25
0.0
 35
0.0
146
0.0
 13
0.0
 23
0.0
 33
0.0
 16
1.0
 26
0.0
 36
0.0
 17
0.0
 27
1.0
 37
0.0
 76
0
330
1F
  0
LAYOUT
  5
26
100
AcDbPlotSettings
  1

  2
none_device
  4

  6

 40
0.0
 41
0.0
 42
0.0
 43
0.0
 44
0.0
 45
0.0
 46
0.0
 47
0.0
 48
0.0
 49
0.0
140
0.0
141
0.0
142
1.0
143
1.0
 70
688
 72
0
 73
0
 74
5
  7

 75
16
147
1.0
148
0.0
149
0.0
100
AcDbLayout
  1
Layout2
 70
1
 71
2
 10
0.0
 20
0.0
 11
12.0
 21
9.0
 12
0.0
 22
0.0
 32
0.0
 14
0.0
 24
0.0
 34
0.0
 15
0.0
 25
0.0
 35
0.0
146
0.0
 13
0.0
 23
0.0
 33
0.0
 16
1.0
 26
0.0
 36
0.0
 17
0.0
 27
1.0
 37
0.0
 76
0
330
23
  0
DICTIONARY
  5
95
100
AcDbDictionary
281
1
  3
DIMASSOC
350
98
  3
HIDETEXT
350
97
  0
DICTIONARYVAR
  5
97
100
DictionaryVariables
280
0
  1
2
  0
DICTIONARYVAR
  5
98
100
DictionaryVariables
280
0
  1
1
  0
DICTIONARY
  5
96
100
AcDbDictionary
281
1
  3
ColorSettings/BackgroundColor
350
99
  3
ColorSettings/ColorMode
350
9A
  3
Grid/DisplayGrid00
350
9B
  3
Grid/DisplayGrid01
350
9C
  3
Grid/DisplayGrid02
350
9D
  3
Grid/DisplayGrid03
350
9E
  3
Grid/GridSpacingX00
350
9F
  3
Grid/GridSpacingX01
350
A0
  3
Grid/GridSpacingX02
350
A1
  3
Grid/GridSpacingX03
350
A2
  3
Grid/GridSpacingY00
350
A3
  3
Grid/GridSpacingY01
350
A4
  3
Grid/GridSpacingY02
350
A5
  3
Grid/GridSpacingY03
350
A6
  3
Grid/IsometricGrid00
350
A7
  3
Grid/IsometricGrid01
350
A8
  3
Grid/IsometricGrid02
350
A9
  3
Grid/IsometricGrid03
350
AA
  3
Grid/IsometricProjection00
350
AB
  3
Grid/IsometricProjection01
350
AC
  3
Grid/IsometricProjection02
350
AD
  3
Grid/IsometricProjection03
350
AE
  3
Grid/MetaGridSpacingX00
350
AF
  3
Grid/MetaGridSpacingX01
350
B0
  3
Grid/MetaGridSpacingX02
350
B1
  3
Grid/MetaGridSpacingX03
350
B2
  3
Grid/MetaGridSpacingY00
350
B3
  3
Grid/MetaGridSpacingY01
350
B4
  3
Grid/MetaGridSpacingY02
350
B5
  3
Grid/MetaGridSpacingY03
350
B6
  3
MultiPageSettings/Columns
350
B7
  3
MultiPageSettings/GlueMarginsBottom
350
B8
  3
MultiPageSettings/GlueMarginsLeft
350
B9
  3
MultiPageSettings/GlueMarginsRight
350
BA
  3
MultiPageSettings/GlueMarginsTop
350
BB
  3
MultiPageSettings/PrintCropMarks
350
BC
  3
MultiPageSettings/Rows
350
BD
  3
PageSettings/OffsetX
350
BE
  3
PageSettings/OffsetY
350
BF
  3
PageSettings/PageOrientation
350
C0
  3
PageSettings/PaperHeight
350
C1
  3
PageSettings/PaperWidth
350
C2
  3
PageSettings/Scale
350
C3
  3
PageSettings/ShowPaperBorders
350
C4
  3
UnitSettings/PaperUnit
350
C5
  0
XRECORD
  5
99
330
96
100
AcDbXrecord
280
1
1000
Blanc
  0
XRECORD
  5
9A
330
96
100
AcDbXrecord
280
1
1000
FullColor
  0
XRECORD
  5
9B
330
96
100
AcDbXrecord
280
1
290
1
  0
XRECORD
  5
9C
330
96
100
AcDbXrecord
280
1
290
1
  0
XRECORD
  5
9D
330
96
100
AcDbXrecord
280
1
290
1
  0
XRECORD
  5
9E
330
96
100
AcDbXrecord
280
1
290
1
  0
XRECORD
  5
9F
330
96
100
AcDbXrecord
280
1
1000
auto
  0
XRECORD
  5
A0
330
96
100
AcDbXrecord
280
1
1000
auto
  0
XRECORD
  5
A1
330
96
100
AcDbXrecord
280
1
1000
auto
  0
XRECORD
  5
A2
330
96
100
AcDbXrecord
280
1
1000
auto
  0
XRECORD
  5
A3
330
96
100
AcDbXrecord
280
1
1000
auto
  0
XRECORD
  5
A4
330
96
100
AcDbXrecord
280
1
1000
auto
  0
XRECORD
  5
A5
330
96
100
AcDbXrecord
280
1
1000
auto
  0
XRECORD
  5
A6
330
96
100
AcDbXrecord
280
1
1000
auto
  0
XRECORD
  5
A7
330
96
100
AcDbXrecord
280
1
290
0
  0
XRECORD
  5
A8
330
96
100
AcDbXrecord
280
1
290
0
  0
XRECORD
  5
A9
330
96
100
AcDbXrecord
280
1
290
0
  0
XRECORD
  5
AA
330
96
100
AcDbXrecord
280
1
290
0
  0
XRECORD
  5
AB
330
96
100
AcDbXrecord
280
1
 90
0
  0
XRECORD
  5
AC
330
96
100
AcDbXrecord
280
1
 90
0
  0
XRECORD
  5
AD
330
96
100
AcDbXrecord
280
1
 90
0
  0
XRECORD
  5
AE
330
96
100
AcDbXrecord
280
1
 90
0
  0
XRECORD
  5
AF
330
96
100
AcDbXrecord
280
1
1000
auto
  0
XRECORD
  5
B0
330
96
100
AcDbXrecord
280
1
1000
auto
  0
XRECORD
  5
B1
330
96
100
AcDbXrecord
280
1
1000
auto
  0
XRECORD
  5
B2
330
96
100
AcDbXrecord
280
1
1000
auto
  0
XRECORD
  5
B3
330
96
100
AcDbXrecord
280
1
1000
auto
  0
XRECORD
  5
B4
330
96
100
AcDbXrecord
280
1
1000
auto
  0
XRECORD
  5
B5
330
96
100
AcDbXrecord
280
1
1000
auto
  0
XRECORD
  5
B6
330
96
100
AcDbXrecord
280
1
1000
auto
  0
XRECORD
  5
B7
330
96
100
AcDbXrecord
280
1
 90
1
  0
XRECORD
  5
B8
330
96
100
AcDbXrecord
280
1
 40
10.0
  0
XRECORD
  5
B9
330
96
100
AcDbXrecord
280
1
 40
10.0
  0
XRECORD
  5
BA
330
96
100
AcDbXrecord
280
1
 40
10.0
  0
XRECORD
  5
BB
330
96
100
AcDbXrecord
280
1
 40
10.0
  0
XRECORD
  5
BC
330
96
100
AcDbXrecord
280
1
290
0
  0
XRECORD
  5
BD
330
96
100
AcDbXrecord
280
1
 90
1
  0
XRECORD
  5
BE
330
96
100
AcDbXrecord
280
1
 40
-90.1534311614323229
  0
XRECORD
  5
BF
330
96
100
AcDbXrecord
280
1
 90
-85
  0
XRECORD
  5
C0
330
96
100
AcDbXrecord
280
1
1000
Landscape
  0
XRECORD
  5
C1
330
96
100
AcDbXrecord
280
1
 40
297.0
  0
XRECORD
  5
C2
330
96
100
AcDbXrecord
280
1
 40
210.0
  0
XRECORD
  5
C3
330
96
100
AcDbXrecord
280
1
1000
1:1
  0
XRECORD
  5
C4
330
96
100
AcDbXrecord
280
1
290
1
  0
XRECORD
  5
C5
330
96
100
AcDbXrecord
280
1
 90
4
  0
ENDSEC
  0
EOF
