999
dxflib 3.7.5.0
  0
SECTION
  2
HEADER
  9
$ACADVER
  1
AC1015
  9
$HANDSEED
  5
FFFF
  9
$DIMADEC
 70
0
  9
$DIMASZ
 40
2.5
  9
$DIMAUNIT
 70
0
  9
$DIMAZIN
 70
2
  9
$DIMDEC
 70
4
  9
$DIMEXE
 40
1.25
  9
$DIMEXO
 40
0.625
  9
$DIMGAP
 40
0.625
  9
$DIMLUNIT
 70
2
  9
$DIMSCALE
 40
1.0
  9
$DIMTSZ
 40
0.0
  9
$DIMTXT
 40
2.5
  9
$DIMZIN
 70
8
  9
$DWGCODEPAGE
  3
ANSI_1252
  9
$INSUNITS
 70
4
  9
$LTSCALE
 40
1
  0
ENDSEC
  0
SECTION
  2
TABLES
  0
TABLE
  2
VPORT
  5
8
100
AcDbSymbolTable
 70
1
  0
VPORT
  5
30
100
AcDbSymbolTableRecord
100
AcDbViewportTableRecord
  2
*Active
 70
0
 10
0.0
 20
0.0
 11
1.0
 21
1.0
 12
286.3055555555554861
 22
148.5
 13
0.0
 23
0.0
 14
10.0
 24
10.0
 15
10.0
 25
10.0
 16
0.0
 26
0.0
 36
1.0
 17
0.0
 27
0.0
 37
0.0
 40
297.0
 41
1.92798353909465
 42
50.0
 43
0.0
 44
0.0
 50
0.0
 51
0.0
 71
0
 72
100
 73
1
 74
3
 75
1
 76
1
 77
0
 78
0
281
0
 65
1
110
0.0
120
0.0
130
0.0
111
1.0
121
0.0
131
0.0
112
0.0
122
1.0
132
0.0
 79
0
146
0.0
  0
ENDTAB
  0
TABLE
  2
LTYPE
  5
5
100
AcDbSymbolTable
 70
3
  0
LTYPE
  5
16
100
AcDbSymbolTableRecord
100
AcDbLinetypeTableRecord
  2
Continuous
 70
0
  3
Solid line
 72
65
 73
0
 40
0.0
  0
LTYPE
  5
15
100
AcDbSymbolTableRecord
100
AcDbLinetypeTableRecord
  2
BYLAYER
 70
0
  3

 72
65
 73
0
 40
0.0
  0
LTYPE
  5
14
100
AcDbSymbolTableRecord
100
AcDbLinetypeTableRecord
  2
BYBLOCK
 70
0
  3

 72
65
 73
0
 40
0.0
  0
ENDTAB
  0
TABLE
  2
LAYER
  5
2
100
AcDbSymbolTable
 70
4
  0
LAYER
  5
31
100
AcDbSymbolTableRecord
100
AcDbLayerTableRecord
  2
trous
 70
0
 62
7
420
0
  6
Continuous
370
25
390
F
  0
LAYER
  5
10
100
AcDbSymbolTableRecord
100
AcDbLayerTableRecord
  2
0
 70
5
 62
-1
420
16711680
  6
Continuous
370
25
390
F
  0
LAYER
  5
32
100
AcDbSymbolTableRecord
100
AcDbLayerTableRecord
  2
fix
 70
4
 62
7
420
0
  6
Continuous
370
25
390
F
  0
LAYER
  5
33
100
AcDbSymbolTableRecord
100
AcDbLayerTableRecord
  2
connecteur
 70
0
 62
7
420
0
  6
Continuous
370
25
390
F
  0
ENDTAB
  0
TABLE
  2
STYLE
  5
3
100
AcDbSymbolTable
 70
1
  0
STYLE
  5
34
100
AcDbSymbolTableRecord
100
AcDbTextStyleTableRecord
  2
Standard
 70
0
 40
0.0
 41
1.0
 50
0.0
 71
0
 42
2.5
  3

  4

1001
ACAD
1000
txt
1071
0
  0
ENDTAB
  0
TABLE
  2
VIEW
  5
6
100
AcDbSymbolTable
 70
0
  0
ENDTAB
  0
TABLE
  2
UCS
  5
7
100
AcDbSymbolTable
 70
0
  0
ENDTAB
  0
TABLE
  2
APPID
  5
9
100
AcDbSymbolTable
 70
1
  0
APPID
  5
12
100
AcDbSymbolTableRecord
100
AcDbRegAppTableRecord
  2
ACAD
 70
0
  0
APPID
  5
35
100
AcDbSymbolTableRecord
100
AcDbRegAppTableRecord
  2
QCAD
 70
0
  0
ENDTAB
  0
TABLE
  2
DIMSTYLE
  5
A
100
AcDbSymbolTable
 70
1
100
AcDbDimStyleTable
 71
0
  0
DIMSTYLE
105
27
100
AcDbSymbolTableRecord
100
AcDbDimStyleTableRecord
  2
Standard
 41
2.5
 42
0.625
 43
3.75
 44
1.25
 70
0
 73
0
 74
0
 77
1
 78
8
140
2.5
141
2.5
143
0.03937007874016
147
0.625
171
3
172
1
271
2
272
2
274
3
278
44
283
0
284
8
340
34
  0
ENDTAB
  0
TABLE
  2
BLOCK_RECORD
  5
1
100
AcDbSymbolTable
 70
1
  0
BLOCK_RECORD
  5
1F
100
AcDbSymbolTableRecord
100
AcDbBlockTableRecord
  2
*Model_Space
340
22
  0
BLOCK_RECORD
  5
1B
100
AcDbSymbolTableRecord
100
AcDbBlockTableRecord
  2
*Paper_Space
340
1E
  0
BLOCK_RECORD
  5
23
100
AcDbSymbolTableRecord
100
AcDbBlockTableRecord
  2
*Paper_Space0
340
26
  0
ENDTAB
  0
ENDSEC
  0
SECTION
  2
BLOCKS
  0
BLOCK
  5
20
100
AcDbEntity
  8
0
100
AcDbBlockBegin
  2
*Model_Space
 70
0
 10
0.0
 20
0.0
 30
0.0
  3
*Model_Space
  1

  0
ENDBLK
  5
21
100
AcDbEntity
  8
0
100
AcDbBlockEnd
  0
BLOCK
  5
1C
100
AcDbEntity
 67
1
  8
0
100
AcDbBlockBegin
  2
*Paper_Space
 70
0
 10
0.0
 20
0.0
 30
0.0
  3
*Paper_Space
  1

  0
ENDBLK
  5
1D
100
AcDbEntity
 67
1
  8
0
100
AcDbBlockEnd
  0
BLOCK
  5
24
100
AcDbEntity
  8
0
100
AcDbBlockBegin
  2
*Paper_Space0
 70
0
 10
0.0
 20
0.0
 30
0.0
  3
*Paper_Space0
  1

  0
ENDBLK
  5
25
100
AcDbEntity
  8
0
100
AcDbBlockEnd
  0
ENDSEC
  0
SECTION
  2
ENTITIES
  0
CIRCLE
  5
36
100
AcDbEntity
100
AcDbCircle
  8
0
 62
256
370
-1
 48
1.0
  6
BYLAYER
 10
20.0
 20
20.0
 30
0.0
 40
27.0
  0
LINE
  5
37
100
AcDbEntity
100
AcDbLine
  8
0
 62
256
370
-1
 48
1.0
  6
BYLAYER
 10
39.2693468865964306
 20
34.0
 30
0.0
 11
120.1710463240911793
 21
92.7785252292473217
 31
0.0
  0
ARC
  5
38
100
AcDbEntity
  8
connecteur
 62
256
370
-1
 48
1.0
  6
BYLAYER
100
AcDbCircle
 10
50.7426457862480049
 20
29.9888911302635286
 30
0.0
 40
5.0
100
AcDbArc
 50
144.0
 51
252.0
  0
CIRCLE
  5
39
100
AcDbEntity
100
AcDbCircle
  8
connecteur
 62
256
370
-1
 48
1.0
  6
BYLAYER
 10
20.0
 20
20.0000000000000036
 30
0.0
 40
2.5
  0
ARC
  5
3A
100
AcDbEntity
  8
connecteur
 62
256
370
-1
 48
1.0
  6
BYLAYER
100
AcDbCircle
 10
19.9999999999999964
 20
0.0222177394729215
 30
0.0
 40
5.0
100
AcDbArc
 50
72.0
 51
108.0
  0
LINE
  5
3B
100
AcDbEntity
100
AcDbLine
  8
connecteur
 62
256
370
-1
 48
1.0
  6
BYLAYER
 10
-57.5575896759760752
 20
9.5204826612611964
 30
0.0
 11
-48.9051138334775715
 21
-17.1090997950030825
 31
0.0
  0
LINE
  5
3C
100
AcDbEntity
100
AcDbLine
  8
connecteur
 62
256
370
-1
 48
1.0
  6
BYLAYER
 10
-13.9332265052711364
 20
90.523302098965587
 30
0.0
 11
-36.5857023477697183
 21
74.0653150347763329
 31
0.0
  0
LINE
  5
3D
100
AcDbEntity
100
AcDbLine
  8
connecteur
 62
256
370
-1
 48
1.0
  6
BYLAYER
 10
76.5857023477696828
 20
74.0653150347763187
 30
0.0
 11
53.9332265052712003
 21
90.5233020989655586
 31
0.0
  0
LINE
  5
3E
100
AcDbEntity
100
AcDbLine
  8
connecteur
 62
256
370
-1
 48
1.0
  6
BYLAYER
 10
88.9051138334775573
 20
-17.1090997950031038
 30
0.0
 11
97.5575896759760894
 21
9.5204826612611662
 31
0.0
  0
LINE
  5
3F
100
AcDbEntity
100
AcDbLine
  8
connecteur
 62
256
370
-1
 48
1.0
  6
BYLAYER
 10
21.5450849718747151
 20
4.7775003209486862
 30
0.0
 11
79.3945486705260066
 21
-14.0189298512536809
 31
0.0
  0
LINE
  5
40
100
AcDbEntity
100
AcDbLine
  8
connecteur
 62
256
370
-1
 48
1.0
  6
BYLAYER
 10
18.454915028125253
 20
4.7775003209486897
 30
0.0
 11
-39.394548670526035
 21
-14.0189298512536027
 31
0.0
  0
LINE
  5
41
100
AcDbEntity
100
AcDbLine
  8
connecteur
 62
256
370
-1
 48
1.0
  6
BYLAYER
 10
49.1975608143732615
 20
25.2336085487877462
 30
0.0
 11
88.047024513024553
 21
12.6106526050106407
 31
0.0
  0
LINE
  5
42
100
AcDbEntity
100
AcDbLine
  8
connecteur
 62
256
370
-1
 48
1.0
  6
BYLAYER
 10
-9.1975608143732615
 20
25.233608548787771
 30
0.0
 11
-48.0470245130245388
 21
12.6106526050106673
 31
0.0
  0
LINE
  5
43
100
AcDbEntity
100
AcDbLine
  8
connecteur
 62
256
370
-1
 48
1.0
  6
BYLAYER
 10
-6.6975608143732579
 20
32.9278173917259096
 30
0.0
 11
-30.7078498248449776
 21
65.9751450910268602
 31
0.0
  0
LINE
  5
44
100
AcDbEntity
100
AcDbLine
  8
connecteur
 62
256
370
-1
 48
1.0
  6
BYLAYER
 10
15.9549150281252672
 20
49.3858044559151494
 30
0.0
 11
-8.0553739823464134
 21
82.4331321552161
 31
0.0
  0
LINE
  5
45
100
AcDbEntity
100
AcDbLine
  8
connecteur
 62
256
370
-1
 48
1.0
  6
BYLAYER
 10
24.0450849718747364
 20
49.3858044559151494
 30
0.0
 11
48.0553739823464596
 21
82.4331321552160716
 31
0.0
  0
LINE
  5
46
100
AcDbEntity
100
AcDbLine
  8
connecteur
 62
256
370
-1
 48
1.0
  6
BYLAYER
 10
46.6975608143732615
 20
32.9278173917258883
 30
0.0
 11
70.7078498248449705
 21
65.975145091026846
 31
0.0
  0
CIRCLE
  5
47
100
AcDbEntity
100
AcDbCircle
  8
trous
 62
256
370
-1
 48
1.0
  6
BYLAYER
 10
-13.503759380670985
 20
66.1139686793719932
 30
0.0
 40
3.5
  0
CIRCLE
  5
48
100
AcDbEntity
100
AcDbCircle
  8
trous
 62
256
370
-1
 48
1.0
  6
BYLAYER
 10
-34.2102214288237647
 20
2.3860313206280281
 30
0.0
 40
3.5
  0
CIRCLE
  5
49
100
AcDbEntity
100
AcDbCircle
  8
trous
 62
256
370
-1
 48
1.0
  6
BYLAYER
 10
74.2102214288237576
 20
2.3860313206279855
 30
0.0
 40
3.5
  0
CIRCLE
  5
4A
100
AcDbEntity
100
AcDbCircle
  8
trous
 62
256
370
-1
 48
1.0
  6
BYLAYER
 10
53.503759380670985
 20
66.1139686793719932
 30
0.0
 40
3.5
  0
LINE
  5
4B
100
AcDbEntity
100
AcDbLine
  8
connecteur
 62
256
370
-1
 48
1.0
  6
BYLAYER
 10
-48.0470245130245388
 20
12.6106526050106673
 30
0.0
 11
-57.5575896759760894
 21
9.5204826612612319
 31
0.0
  0
LINE
  5
4C
100
AcDbEntity
100
AcDbLine
  8
connecteur
 62
256
370
-1
 48
1.0
  6
BYLAYER
 10
-39.394548670526035
 20
-14.0189298512536027
 30
0.0
 11
-48.9051138334775857
 21
-17.1090997950030896
 31
0.0
  0
LINE
  5
4D
100
AcDbEntity
100
AcDbLine
  8
connecteur
 62
256
370
-1
 48
1.0
  6
BYLAYER
 10
79.3945486705260066
 20
-14.0189298512536809
 30
0.0
 11
88.9051138334775573
 21
-17.1090997950031038
 31
0.0
  0
LINE
  5
4E
100
AcDbEntity
100
AcDbLine
  8
connecteur
 62
256
370
-1
 48
1.0
  6
BYLAYER
 10
88.047024513024553
 20
12.6106526050106407
 30
0.0
 11
97.5575896759760894
 21
9.5204826612611662
 31
0.0
  0
LINE
  5
4F
100
AcDbEntity
100
AcDbLine
  8
connecteur
 62
256
370
-1
 48
1.0
  6
BYLAYER
 10
70.7078498248449705
 20
65.975145091026846
 30
0.0
 11
76.5857023477696828
 21
74.0653150347763187
 31
0.0
  0
LINE
  5
50
100
AcDbEntity
100
AcDbLine
  8
connecteur
 62
256
370
-1
 48
1.0
  6
BYLAYER
 10
48.0553739823464596
 20
82.4331321552160716
 30
0.0
 11
53.9332265052712003
 21
90.5233020989655586
 31
0.0
  0
LINE
  5
51
100
AcDbEntity
100
AcDbLine
  8
connecteur
 62
256
370
-1
 48
1.0
  6
BYLAYER
 10
-8.0553739823464134
 20
82.4331321552161
 30
0.0
 11
-13.9332265052711364
 21
90.523302098965587
 31
0.0
  0
LINE
  5
52
100
AcDbEntity
100
AcDbLine
  8
connecteur
 62
256
370
-1
 48
1.0
  6
BYLAYER
 10
-30.7078498248449776
 20
65.9751450910268602
 30
0.0
 11
-36.585702347769697
 21
74.0653150347763471
 31
0.0
  0
ARC
  5
53
100
AcDbEntity
  8
connecteur
 62
256
370
-1
 48
1.0
  6
BYLAYER
100
AcDbCircle
 10
-10.7426457862479978
 20
29.9888911302635393
 30
0.0
 40
5.0
100
AcDbArc
 50
288.0
 51
36.0
  0
ARC
  5
54
100
AcDbEntity
  8
connecteur
 62
256
370
-1
 48
1.0
  6
BYLAYER
100
AcDbCircle
 10
20.0000000000000036
 20
52.3247307173775198
 30
0.0
 40
5.0
100
AcDbArc
 50
216.0000000000000284
 51
324.0
  0
LINE
  5
55
100
AcDbEntity
100
AcDbLine
  8
0
 62
256
370
-1
 48
1.0
  6
BYLAYER
 10
-120.5233020989655159
 20
-6.0667734947287357
 30
0.0
 11
-120.5233020989655159
 21
-6.0667734947287357
 31
0.0
  0
LINE
  5
56
100
AcDbEntity
100
AcDbLine
  8
0
 62
256
370
-1
 48
1.0
  6
BYLAYER
 10
-120.5233020989655159
 20
-6.0667734947287357
 30
0.0
 11
-120.523302098965587
 21
-73.9332265052711364
 31
0.0
  0
LINE
  5
57
100
AcDbEntity
100
AcDbLine
  8
0
 62
256
370
-1
 48
1.0
  6
BYLAYER
 10
90.5233020989655586
 20
-13.9332265052711932
 30
0.0
 11
90.5233020989655728
 21
53.9332265052711648
 31
0.0
  0
ARC
  5
58
100
AcDbEntity
  8
connecteur
 62
256
370
-1
 48
1.0
  6
BYLAYER
100
AcDbCircle
 10
-10.7426457862479978
 20
-89.988891130263525
 30
0.0
 40
5.0
100
AcDbArc
 50
324.0
 51
72.0
  0
CIRCLE
  5
59
100
AcDbEntity
100
AcDbCircle
  8
connecteur
 62
256
370
-1
 48
1.0
  6
BYLAYER
 10
20.0000000000000071
 20
-80.0
 30
0.0
 40
2.5
  0
ARC
  5
5A
100
AcDbEntity
  8
connecteur
 62
256
370
-1
 48
1.0
  6
BYLAYER
100
AcDbCircle
 10
20.0000000000000142
 20
-60.0222177394729215
 30
0.0
 40
5.0
100
AcDbArc
 50
252.0
 51
288.0
  0
LINE
  5
5B
100
AcDbEntity
100
AcDbLine
  8
connecteur
 62
256
370
-1
 48
1.0
  6
BYLAYER
 10
97.5575896759760894
 20
-69.5204826612611413
 30
0.0
 11
88.9051138334775999
 21
-42.8909002049969246
 31
0.0
  0
LINE
  5
5C
100
AcDbEntity
100
AcDbLine
  8
connecteur
 62
256
370
-1
 48
1.0
  6
BYLAYER
 10
53.933226505271108
 20
-150.523302098965587
 30
0.0
 11
76.5857023477697396
 21
-134.0653150347763187
 31
0.0
  0
LINE
  5
5D
100
AcDbEntity
100
AcDbLine
  8
connecteur
 62
256
370
-1
 48
1.0
  6
BYLAYER
 10
-36.5857023477696757
 20
-134.0653150347763187
 30
0.0
 11
-13.933226505271179
 21
-150.5233020989655586
 31
0.0
  0
LINE
  5
5E
100
AcDbEntity
100
AcDbLine
  8
connecteur
 62
256
370
-1
 48
1.0
  6
BYLAYER
 10
-48.9051138334775075
 20
-42.8909002049968251
 30
0.0
 11
-57.5575896759760823
 21
-69.5204826612610844
 31
0.0
  0
LINE
  5
5F
100
AcDbEntity
100
AcDbLine
  8
connecteur
 62
256
370
-1
 48
1.0
  6
BYLAYER
 10
18.4549150281252921
 20
-64.7775003209486897
 30
0.0
 11
-39.3945486705259569
 21
-45.9810701487462552
 31
0.0
  0
LINE
  5
60
100
AcDbEntity
100
AcDbLine
  8
connecteur
 62
256
370
-1
 48
1.0
  6
BYLAYER
 10
21.5450849718747577
 20
-64.7775003209486897
 30
0.0
 11
79.394548670526035
 21
-45.9810701487464044
 31
0.0
  0
LINE
  5
61
100
AcDbEntity
100
AcDbLine
  8
connecteur
 62
256
370
-1
 48
1.0
  6
BYLAYER
 10
-9.1975608143732543
 20
-85.2336085487877284
 30
0.0
 11
-48.0470245130245317
 21
-72.6106526050105145
 31
0.0
  0
LINE
  5
62
100
AcDbEntity
100
AcDbLine
  8
connecteur
 62
256
370
-1
 48
1.0
  6
BYLAYER
 10
49.1975608143732686
 20
-85.2336085487877568
 30
0.0
 11
88.047024513024553
 21
-72.610652605010614
 31
0.0
  0
LINE
  5
63
100
AcDbEntity
100
AcDbLine
  8
connecteur
 62
256
370
-1
 48
1.0
  6
BYLAYER
 10
46.6975608143732686
 20
-92.9278173917258954
 30
0.0
 11
70.7078498248449421
 21
-125.9751450910268886
 31
0.0
  0
LINE
  5
64
100
AcDbEntity
100
AcDbLine
  8
connecteur
 62
256
370
-1
 48
1.0
  6
BYLAYER
 10
24.0450849718747293
 20
-109.3858044559151494
 30
0.0
 11
48.0553739823463886
 21
-142.4331321552161285
 31
0.0
  0
LINE
  5
65
100
AcDbEntity
100
AcDbLine
  8
connecteur
 62
256
370
-1
 48
1.0
  6
BYLAYER
 10
15.9549150281252743
 20
-109.3858044559151494
 30
0.0
 11
-8.0553739823464454
 21
-142.4331321552160716
 31
0.0
  0
LINE
  5
66
100
AcDbEntity
100
AcDbLine
  8
connecteur
 62
256
370
-1
 48
1.0
  6
BYLAYER
 10
-6.6975608143732543
 20
-92.9278173917258812
 30
0.0
 11
-30.7078498248449705
 21
-125.9751450910268318
 31
0.0
  0
CIRCLE
  5
67
100
AcDbEntity
100
AcDbCircle
  8
trous
 62
256
370
-1
 48
1.0
  6
BYLAYER
 10
53.5037593806710063
 20
-126.1139686793719648
 30
0.0
 40
3.5
  0
CIRCLE
  5
68
100
AcDbEntity
100
AcDbCircle
  8
trous
 62
256
370
-1
 48
1.0
  6
BYLAYER
 10
74.210221428823786
 20
-62.3860313206280637
 30
0.0
 40
3.5
  0
CIRCLE
  5
69
100
AcDbEntity
100
AcDbCircle
  8
trous
 62
256
370
-1
 48
1.0
  6
BYLAYER
 10
-34.2102214288237434
 20
-62.3860313206279784
 30
0.0
 40
3.5
  0
CIRCLE
  5
6A
100
AcDbEntity
100
AcDbCircle
  8
trous
 62
256
370
-1
 48
1.0
  6
BYLAYER
 10
-13.5037593806709708
 20
-126.1139686793719932
 30
0.0
 40
3.5
  0
LINE
  5
6B
100
AcDbEntity
100
AcDbLine
  8
connecteur
 62
256
370
-1
 48
1.0
  6
BYLAYER
 10
88.047024513024553
 20
-72.610652605010614
 30
0.0
 11
97.5575896759760894
 21
-69.5204826612612692
 31
0.0
  0
LINE
  5
6C
100
AcDbEntity
100
AcDbLine
  8
connecteur
 62
256
370
-1
 48
1.0
  6
BYLAYER
 10
79.394548670526035
 20
-45.9810701487464044
 30
0.0
 11
88.9051138334775999
 21
-42.8909002049969175
 31
0.0
  0
LINE
  5
6D
100
AcDbEntity
100
AcDbLine
  8
connecteur
 62
256
370
-1
 48
1.0
  6
BYLAYER
 10
-39.3945486705259569
 20
-45.9810701487462552
 30
0.0
 11
-48.9051138334775075
 21
-42.8909002049968251
 31
0.0
  0
LINE
  5
6E
100
AcDbEntity
100
AcDbLine
  8
connecteur
 62
256
370
-1
 48
1.0
  6
BYLAYER
 10
-48.0470245130245317
 20
-72.6106526050105145
 30
0.0
 11
-57.5575896759760823
 21
-69.5204826612610844
 31
0.0
  0
LINE
  5
6F
100
AcDbEntity
100
AcDbLine
  8
connecteur
 62
256
370
-1
 48
1.0
  6
BYLAYER
 10
-30.7078498248449705
 20
-125.9751450910268318
 30
0.0
 11
-36.5857023477696757
 21
-134.0653150347763187
 31
0.0
  0
LINE
  5
70
100
AcDbEntity
100
AcDbLine
  8
connecteur
 62
256
370
-1
 48
1.0
  6
BYLAYER
 10
-8.0553739823464454
 20
-142.4331321552160716
 30
0.0
 11
-13.933226505271179
 21
-150.5233020989655586
 31
0.0
  0
LINE
  5
71
100
AcDbEntity
100
AcDbLine
  8
connecteur
 62
256
370
-1
 48
1.0
  6
BYLAYER
 10
48.0553739823463886
 20
-142.4331321552161285
 30
0.0
 11
53.933226505271108
 21
-150.523302098965587
 31
0.0
  0
LINE
  5
72
100
AcDbEntity
100
AcDbLine
  8
connecteur
 62
256
370
-1
 48
1.0
  6
BYLAYER
 10
70.7078498248449421
 20
-125.9751450910268886
 30
0.0
 11
76.5857023477696828
 21
-134.0653150347763756
 31
0.0
  0
ARC
  5
73
100
AcDbEntity
  8
connecteur
 62
256
370
-1
 48
1.0
  6
BYLAYER
100
AcDbCircle
 10
50.7426457862480049
 20
-89.9888911302635393
 30
0.0
 40
5.0
100
AcDbArc
 50
108.0
 51
216.0
  0
ARC
  5
74
100
AcDbEntity
  8
connecteur
 62
256
370
-1
 48
1.0
  6
BYLAYER
100
AcDbCircle
 10
20.0
 20
-112.3247307173775198
 30
0.0
 40
5.0
100
AcDbArc
 50
36.0
 51
144.0
  0
LINE
  5
75
100
AcDbEntity
100
AcDbLine
  8
0
 62
256
370
-1
 48
1.0
  6
BYLAYER
 10
20.0
 20
20.0
 30
0.0
 11
120.0
 21
20.0
 31
0.0
  0
LINE
  5
76
100
AcDbEntity
100
AcDbLine
  8
0
 62
256
370
-1
 48
1.0
  6
BYLAYER
 10
20.0000000000000071
 20
-80.0
 30
0.0
 11
120.0
 21
-80.0
 31
0.0
  0
ENDSEC
  0
SECTION
  2
OBJECTS
  0
DICTIONARY
  5
C
100
AcDbDictionary
280
0
281
1
  3
ACAD_GROUP
350
D
  3
ACAD_LAYOUT
350
1A
  3
ACAD_MLINESTYLE
350
17
  3
ACAD_PLOTSETTINGS
350
19
  3
ACAD_PLOTSTYLENAME
350
E
  3
AcDbVariableDictionary
350
77
  3
QCAD_OBJECTS
350
78
  0
DICTIONARY
  5
D
100
AcDbDictionary
280
0
281
1
  0
ACDBDICTIONARYWDFLT
  5
E
100
AcDbDictionary
281
1
  3
Normal
350
F
100
AcDbDictionaryWithDefault
340
F
  0
ACDBPLACEHOLDER
  5
F
  0
DICTIONARY
  5
17
100
AcDbDictionary
280
0
281
1
  3
Standard
350
18
  0
MLINESTYLE
  5
18
100
AcDbMlineStyle
  2
STANDARD
 70
0
  3

 62
256
 51
90.0
 52
90.0
 71
2
 49
0.5
 62
256
  6
BYLAYER
 49
-0.5
 62
256
  6
BYLAYER
  0
DICTIONARY
  5
19
100
AcDbDictionary
280
0
281
1
  0
DICTIONARY
  5
1A
100
AcDbDictionary
281
1
  3
Layout1
350
1E
  3
Layout2
350
26
  3
Model
350
22
  0
LAYOUT
  5
1E
100
AcDbPlotSettings
  1

  2
none_device
  4

  6

 40
0.0
 41
0.0
 42
0.0
 43
0.0
 44
0.0
 45
0.0
 46
0.0
 47
0.0
 48
0.0
 49
0.0
140
0.0
141
0.0
142
1.0
143
1.0
 70
688
 72
0
 73
0
 74
5
  7

 75
16
147
1.0
148
0.0
149
0.0
100
AcDbLayout
  1
Layout1
 70
1
 71
1
 10
0.0
 20
0.0
 11
420.0
 21
297.0
 12
0.0
 22
0.0
 32
0.0
 14
100000000000000000000.0
 24
100000000000000000000.0
 34
100000000000000000000.0
 15
-100000000000000000000.0
 25
-100000000000000000000.0
 35
-100000000000000000000.0
146
0.0
 13
0.0
 23
0.0
 33
0.0
 16
1.0
 26
0.0
 36
0.0
 17
0.0
 27
1.0
 37
0.0
 76
0
330
1B
  0
LAYOUT
  5
22
100
AcDbPlotSettings
  1

  2
none_device
  4

  6

 40
0.0
 41
0.0
 42
0.0
 43
0.0
 44
0.0
 45
0.0
 46
0.0
 47
0.0
 48
0.0
 49
0.0
140
0.0
141
0.0
142
1.0
143
1.0
 70
1712
 72
0
 73
0
 74
0
  7

 75
0
147
1.0
148
0.0
149
0.0
100
AcDbLayout
  1
Model
 70
1
 71
0
 10
0.0
 20
0.0
 11
12.0
 21
9.0
 12
0.0
 22
0.0
 32
0.0
 14
0.0
 24
0.0
 34
0.0
 15
0.0
 25
0.0
 35
0.0
146
0.0
 13
0.0
 23
0.0
 33
0.0
 16
1.0
 26
0.0
 36
0.0
 17
0.0
 27
1.0
 37
0.0
 76
0
330
1F
  0
LAYOUT
  5
26
100
AcDbPlotSettings
  1

  2
none_device
  4

  6

 40
0.0
 41
0.0
 42
0.0
 43
0.0
 44
0.0
 45
0.0
 46
0.0
 47
0.0
 48
0.0
 49
0.0
140
0.0
141
0.0
142
1.0
143
1.0
 70
688
 72
0
 73
0
 74
5
  7

 75
16
147
1.0
148
0.0
149
0.0
100
AcDbLayout
  1
Layout2
 70
1
 71
2
 10
0.0
 20
0.0
 11
12.0
 21
9.0
 12
0.0
 22
0.0
 32
0.0
 14
0.0
 24
0.0
 34
0.0
 15
0.0
 25
0.0
 35
0.0
146
0.0
 13
0.0
 23
0.0
 33
0.0
 16
1.0
 26
0.0
 36
0.0
 17
0.0
 27
1.0
 37
0.0
 76
0
330
23
  0
DICTIONARY
  5
77
100
AcDbDictionary
281
1
  3
DIMASSOC
350
7A
  3
HIDETEXT
350
79
  0
DICTIONARYVAR
  5
79
100
DictionaryVariables
280
0
  1
2
  0
DICTIONARYVAR
  5
7A
100
DictionaryVariables
280
0
  1
1
  0
DICTIONARY
  5
78
100
AcDbDictionary
281
1
  3
ColorSettings/BackgroundColor
350
7B
  3
ColorSettings/ColorMode
350
7C
  3
Grid/DisplayGrid00
350
7D
  3
Grid/DisplayGrid01
350
7E
  3
Grid/DisplayGrid02
350
7F
  3
Grid/DisplayGrid03
350
80
  3
Grid/GridSpacingX00
350
81
  3
Grid/GridSpacingX01
350
82
  3
Grid/GridSpacingX02
350
83
  3
Grid/GridSpacingX03
350
84
  3
Grid/GridSpacingY00
350
85
  3
Grid/GridSpacingY01
350
86
  3
Grid/GridSpacingY02
350
87
  3
Grid/GridSpacingY03
350
88
  3
Grid/IsometricGrid00
350
89
  3
Grid/IsometricGrid01
350
8A
  3
Grid/IsometricGrid02
350
8B
  3
Grid/IsometricGrid03
350
8C
  3
Grid/IsometricProjection00
350
8D
  3
Grid/IsometricProjection01
350
8E
  3
Grid/IsometricProjection02
350
8F
  3
Grid/IsometricProjection03
350
90
  3
Grid/MetaGridSpacingX00
350
91
  3
Grid/MetaGridSpacingX01
350
92
  3
Grid/MetaGridSpacingX02
350
93
  3
Grid/MetaGridSpacingX03
350
94
  3
Grid/MetaGridSpacingY00
350
95
  3
Grid/MetaGridSpacingY01
350
96
  3
Grid/MetaGridSpacingY02
350
97
  3
Grid/MetaGridSpacingY03
350
98
  3
MultiPageSettings/Columns
350
99
  3
MultiPageSettings/GlueMarginsBottom
350
9A
  3
MultiPageSettings/GlueMarginsLeft
350
9B
  3
MultiPageSettings/GlueMarginsRight
350
9C
  3
MultiPageSettings/GlueMarginsTop
350
9D
  3
MultiPageSettings/PrintCropMarks
350
9E
  3
MultiPageSettings/Rows
350
9F
  3
PageSettings/OffsetX
350
A0
  3
PageSettings/OffsetY
350
A1
  3
PageSettings/PageOrientation
350
A2
  3
PageSettings/PaperHeight
350
A3
  3
PageSettings/PaperWidth
350
A4
  3
PageSettings/Scale
350
A5
  3
PageSettings/ShowPaperBorders
350
A6
  3
UnitSettings/PaperUnit
350
A7
  0
XRECORD
  5
7B
330
78
100
AcDbXrecord
280
1
1000
Blanc
  0
XRECORD
  5
7C
330
78
100
AcDbXrecord
280
1
1000
FullColor
  0
XRECORD
  5
7D
330
78
100
AcDbXrecord
280
1
290
1
  0
XRECORD
  5
7E
330
78
100
AcDbXrecord
280
1
290
1
  0
XRECORD
  5
7F
330
78
100
AcDbXrecord
280
1
290
1
  0
XRECORD
  5
80
330
78
100
AcDbXrecord
280
1
290
1
  0
XRECORD
  5
81
330
78
100
AcDbXrecord
280
1
1000
auto
  0
XRECORD
  5
82
330
78
100
AcDbXrecord
280
1
1000
auto
  0
XRECORD
  5
83
330
78
100
AcDbXrecord
280
1
1000
auto
  0
XRECORD
  5
84
330
78
100
AcDbXrecord
280
1
1000
auto
  0
XRECORD
  5
85
330
78
100
AcDbXrecord
280
1
1000
auto
  0
XRECORD
  5
86
330
78
100
AcDbXrecord
280
1
1000
auto
  0
XRECORD
  5
87
330
78
100
AcDbXrecord
280
1
1000
auto
  0
XRECORD
  5
88
330
78
100
AcDbXrecord
280
1
1000
auto
  0
XRECORD
  5
89
330
78
100
AcDbXrecord
280
1
290
0
  0
XRECORD
  5
8A
330
78
100
AcDbXrecord
280
1
290
0
  0
XRECORD
  5
8B
330
78
100
AcDbXrecord
280
1
290
0
  0
XRECORD
  5
8C
330
78
100
AcDbXrecord
280
1
290
0
  0
XRECORD
  5
8D
330
78
100
AcDbXrecord
280
1
 90
0
  0
XRECORD
  5
8E
330
78
100
AcDbXrecord
280
1
 90
0
  0
XRECORD
  5
8F
330
78
100
AcDbXrecord
280
1
 90
0
  0
XRECORD
  5
90
330
78
100
AcDbXrecord
280
1
 90
0
  0
XRECORD
  5
91
330
78
100
AcDbXrecord
280
1
1000
auto
  0
XRECORD
  5
92
330
78
100
AcDbXrecord
280
1
1000
auto
  0
XRECORD
  5
93
330
78
100
AcDbXrecord
280
1
1000
auto
  0
XRECORD
  5
94
330
78
100
AcDbXrecord
280
1
1000
auto
  0
XRECORD
  5
95
330
78
100
AcDbXrecord
280
1
1000
auto
  0
XRECORD
  5
96
330
78
100
AcDbXrecord
280
1
1000
auto
  0
XRECORD
  5
97
330
78
100
AcDbXrecord
280
1
1000
auto
  0
XRECORD
  5
98
330
78
100
AcDbXrecord
280
1
1000
auto
  0
XRECORD
  5
99
330
78
100
AcDbXrecord
280
1
 90
1
  0
XRECORD
  5
9A
330
78
100
AcDbXrecord
280
1
 40
10.0
  0
XRECORD
  5
9B
330
78
100
AcDbXrecord
280
1
 40
10.0
  0
XRECORD
  5
9C
330
78
100
AcDbXrecord
280
1
 40
10.0
  0
XRECORD
  5
9D
330
78
100
AcDbXrecord
280
1
 40
10.0
  0
XRECORD
  5
9E
330
78
100
AcDbXrecord
280
1
290
0
  0
XRECORD
  5
9F
330
78
100
AcDbXrecord
280
1
 90
1
  0
XRECORD
  5
A0
330
78
100
AcDbXrecord
280
1
 40
-90.1534311614323229
  0
XRECORD
  5
A1
330
78
100
AcDbXrecord
280
1
 90
-85
  0
XRECORD
  5
A2
330
78
100
AcDbXrecord
280
1
1000
Landscape
  0
XRECORD
  5
A3
330
78
100
AcDbXrecord
280
1
 40
297.0
  0
XRECORD
  5
A4
330
78
100
AcDbXrecord
280
1
 40
210.0
  0
XRECORD
  5
A5
330
78
100
AcDbXrecord
280
1
1000
1:1
  0
XRECORD
  5
A6
330
78
100
AcDbXrecord
280
1
290
1
  0
XRECORD
  5
A7
330
78
100
AcDbXrecord
280
1
 90
4
  0
ENDSEC
  0
EOF
