999
dxflib 3.7.5.0
  0
SECTION
  2
HEADER
  9
$ACADVER
  1
AC1015
  9
$HANDSEED
  5
FFFF
  9
$DIMADEC
 70
0
  9
$DIMASZ
 40
2.5
  9
$DIMAUNIT
 70
0
  9
$DIMAZIN
 70
2
  9
$DIMDEC
 70
4
  9
$DIMEXE
 40
1.25
  9
$DIMEXO
 40
0.625
  9
$DIMGAP
 40
0.625
  9
$DIMLUNIT
 70
2
  9
$DIMSCALE
 40
1.0
  9
$DIMTSZ
 40
0.0
  9
$DIMTXT
 40
2.5
  9
$DIMZIN
 70
8
  9
$DWGCODEPAGE
  3
ANSI_1252
  9
$INSUNITS
 70
4
  9
$LTSCALE
 40
1
  0
ENDSEC
  0
SECTION
  2
TABLES
  0
TABLE
  2
VPORT
  5
8
100
AcDbSymbolTable
 70
1
  0
VPORT
  5
30
100
AcDbSymbolTableRecord
100
AcDbViewportTableRecord
  2
*Active
 70
0
 10
0.0
 20
0.0
 11
1.0
 21
1.0
 12
286.3055555555554861
 22
148.5
 13
0.0
 23
0.0
 14
10.0
 24
10.0
 15
10.0
 25
10.0
 16
0.0
 26
0.0
 36
1.0
 17
0.0
 27
0.0
 37
0.0
 40
297.0
 41
1.92798353909465
 42
50.0
 43
0.0
 44
0.0
 50
0.0
 51
0.0
 71
0
 72
100
 73
1
 74
3
 75
1
 76
1
 77
0
 78
0
281
0
 65
1
110
0.0
120
0.0
130
0.0
111
1.0
121
0.0
131
0.0
112
0.0
122
1.0
132
0.0
 79
0
146
0.0
  0
ENDTAB
  0
TABLE
  2
LTYPE
  5
5
100
AcDbSymbolTable
 70
3
  0
LTYPE
  5
16
100
AcDbSymbolTableRecord
100
AcDbLinetypeTableRecord
  2
Continuous
 70
0
  3
Solid line
 72
65
 73
0
 40
0.0
  0
LTYPE
  5
15
100
AcDbSymbolTableRecord
100
AcDbLinetypeTableRecord
  2
BYLAYER
 70
0
  3

 72
65
 73
0
 40
0.0
  0
LTYPE
  5
14
100
AcDbSymbolTableRecord
100
AcDbLinetypeTableRecord
  2
BYBLOCK
 70
0
  3

 72
65
 73
0
 40
0.0
  0
ENDTAB
  0
TABLE
  2
LAYER
  5
2
100
AcDbSymbolTable
 70
4
  0
LAYER
  5
31
100
AcDbSymbolTableRecord
100
AcDbLayerTableRecord
  2
construction
 70
1
 62
-1
420
16711680
  6
Continuous
370
25
390
F
  0
LAYER
  5
32
100
AcDbSymbolTableRecord
100
AcDbLayerTableRecord
  2
trous
 70
0
 62
7
420
0
  6
Continuous
370
25
390
F
  0
LAYER
  5
33
100
AcDbSymbolTableRecord
100
AcDbLayerTableRecord
  2
marque_cours
 70
0
 62
7
420
0
  6
Continuous
370
25
390
F
  0
LAYER
  5
10
100
AcDbSymbolTableRecord
100
AcDbLayerTableRecord
  2
0
 70
0
 62
7
420
16777215
  6
Continuous
370
25
390
F
  0
ENDTAB
  0
TABLE
  2
STYLE
  5
3
100
AcDbSymbolTable
 70
1
  0
STYLE
  5
34
100
AcDbSymbolTableRecord
100
AcDbTextStyleTableRecord
  2
Standard
 70
0
 40
0.0
 41
1.0
 50
0.0
 71
0
 42
2.5
  3

  4

1001
ACAD
1000
txt
1071
0
  0
ENDTAB
  0
TABLE
  2
VIEW
  5
6
100
AcDbSymbolTable
 70
0
  0
ENDTAB
  0
TABLE
  2
UCS
  5
7
100
AcDbSymbolTable
 70
0
  0
ENDTAB
  0
TABLE
  2
APPID
  5
9
100
AcDbSymbolTable
 70
1
  0
APPID
  5
12
100
AcDbSymbolTableRecord
100
AcDbRegAppTableRecord
  2
ACAD
 70
0
  0
APPID
  5
35
100
AcDbSymbolTableRecord
100
AcDbRegAppTableRecord
  2
QCAD
 70
0
  0
ENDTAB
  0
TABLE
  2
DIMSTYLE
  5
A
100
AcDbSymbolTable
 70
1
100
AcDbDimStyleTable
 71
0
  0
DIMSTYLE
105
27
100
AcDbSymbolTableRecord
100
AcDbDimStyleTableRecord
  2
Standard
 41
2.5
 42
0.625
 43
3.75
 44
1.25
 70
0
 73
0
 74
0
 77
1
 78
8
140
2.5
141
2.5
143
0.03937007874016
147
0.625
171
3
172
1
271
2
272
2
274
3
278
44
283
0
284
8
340
34
  0
ENDTAB
  0
TABLE
  2
BLOCK_RECORD
  5
1
100
AcDbSymbolTable
 70
1
  0
BLOCK_RECORD
  5
1F
100
AcDbSymbolTableRecord
100
AcDbBlockTableRecord
  2
*Model_Space
340
22
  0
BLOCK_RECORD
  5
1B
100
AcDbSymbolTableRecord
100
AcDbBlockTableRecord
  2
*Paper_Space
340
1E
  0
BLOCK_RECORD
  5
23
100
AcDbSymbolTableRecord
100
AcDbBlockTableRecord
  2
*Paper_Space0
340
26
  0
ENDTAB
  0
ENDSEC
  0
SECTION
  2
BLOCKS
  0
BLOCK
  5
20
100
AcDbEntity
  8
0
100
AcDbBlockBegin
  2
*Model_Space
 70
0
 10
0.0
 20
0.0
 30
0.0
  3
*Model_Space
  1

  0
ENDBLK
  5
21
100
AcDbEntity
  8
0
100
AcDbBlockEnd
  0
BLOCK
  5
1C
100
AcDbEntity
 67
1
  8
0
100
AcDbBlockBegin
  2
*Paper_Space
 70
0
 10
0.0
 20
0.0
 30
0.0
  3
*Paper_Space
  1

  0
ENDBLK
  5
1D
100
AcDbEntity
 67
1
  8
0
100
AcDbBlockEnd
  0
BLOCK
  5
24
100
AcDbEntity
  8
0
100
AcDbBlockBegin
  2
*Paper_Space0
 70
0
 10
0.0
 20
0.0
 30
0.0
  3
*Paper_Space0
  1

  0
ENDBLK
  5
25
100
AcDbEntity
  8
0
100
AcDbBlockEnd
  0
ENDSEC
  0
SECTION
  2
ENTITIES
  0
CIRCLE
  5
36
100
AcDbEntity
100
AcDbCircle
  8
construction
 62
256
370
-1
 48
1.0
  6
BYLAYER
 10
0.0
 20
0.0
 30
0.0
 40
27.0
  0
LINE
  5
37
100
AcDbEntity
100
AcDbLine
  8
0
 62
256
370
-1
 48
1.0
  6
BYLAYER
 10
33.169789665700371
 20
-13.5
 30
0.0
 11
77.0
 21
-13.5
 31
0.0
  0
LINE
  5
38
100
AcDbEntity
100
AcDbLine
  8
0
 62
256
370
-1
 48
1.0
  6
BYLAYER
 10
77.0
 20
-13.5
 30
0.0
 11
77.0
 21
13.5
 31
0.0
  0
LINE
  5
39
100
AcDbEntity
100
AcDbLine
  8
0
 62
256
370
-1
 48
1.0
  6
BYLAYER
 10
77.0
 20
13.5
 30
0.0
 11
29.954052691950551
 21
13.5
 31
0.0
  0
LINE
  5
3A
100
AcDbEntity
100
AcDbLine
  8
construction
 62
256
370
-1
 48
1.0
  6
BYLAYER
 10
27.0
 20
13.5
 30
0.0
 11
27.0
 21
-13.5
 31
0.0
  0
LINE
  5
3B
100
AcDbEntity
100
AcDbLine
  8
construction
 62
256
370
-1
 48
1.0
  6
BYLAYER
 10
37.0
 20
13.4999999999999982
 30
0.0
 11
37.0
 21
-13.5000000000000018
 31
0.0
  0
CIRCLE
  5
3C
100
AcDbEntity
100
AcDbCircle
  8
trous
 62
256
370
-1
 48
1.0
  6
BYLAYER
 10
57.0
 20
0.0
 30
0.0
 40
3.5
  0
LINE
  5
3D
100
AcDbEntity
100
AcDbLine
  8
0
 62
256
370
-1
 48
1.0
  6
BYLAYER
 10
25.4832815077537056
 20
20.7387954391938507
 30
0.0
 11
46.5485319609167973
 21
62.8051285508079218
 31
0.0
  0
LINE
  5
3E
100
AcDbEntity
100
AcDbLine
  8
0
 62
256
370
-1
 48
1.0
  6
BYLAYER
 10
46.5485319609167973
 20
62.8051285508079218
 30
0.0
 11
22.4063675662537918
 21
74.8946239224547554
 31
0.0
  0
LINE
  5
3F
100
AcDbEntity
100
AcDbLine
  8
0
 62
256
370
-1
 48
1.0
  6
BYLAYER
 10
22.4063675662537918
 20
74.8946239224547554
 30
0.0
 11
2.780992567186388
 21
35.703655650480087
 31
0.0
  0
LINE
  5
40
100
AcDbEntity
100
AcDbLine
  8
construction
 62
256
370
-1
 48
1.0
  6
BYLAYER
 10
0.0184131743153116
 20
30.18691208048633
 30
0.0
 11
24.1605775689782654
 21
18.0974167088395319
 31
0.0
  0
LINE
  5
41
100
AcDbEntity
100
AcDbLine
  8
construction
 62
256
370
-1
 48
1.0
  6
BYLAYER
 10
4.4960040527030136
 20
39.1284544488800137
 30
0.0
 11
28.6381684473659455
 21
27.0389590772332333
 31
0.0
  0
CIRCLE
  5
42
100
AcDbEntity
100
AcDbCircle
  8
trous
 62
256
370
-1
 48
1.0
  6
BYLAYER
 10
25.522268006809874
 20
50.9667914998439855
 30
0.0
 40
3.5
  0
LINE
  5
43
100
AcDbEntity
100
AcDbLine
  8
construction
 62
256
370
-1
 48
1.0
  6
BYLAYER
 10
-30.9284010668985943
 20
24.3861437592142813
 30
0.0
 11
-7.9565011124492173
 21
38.5738783381655139
 31
0.0
  0
CIRCLE
  5
44
100
AcDbEntity
100
AcDbCircle
  8
trous
 62
256
370
-1
 48
1.0
  6
BYLAYER
 10
-29.95188411111927
 20
48.4962332371709124
 30
0.0
 40
3.5
  0
LINE
  5
45
100
AcDbEntity
100
AcDbLine
  8
0
 62
256
370
-1
 48
1.0
  6
BYLAYER
 10
-5.9438341641307106
 20
35.3150928343126012
 30
0.0
 11
-28.9753671553398675
 21
72.6063227151275896
 31
0.0
  0
LINE
  5
46
100
AcDbEntity
100
AcDbLine
  8
0
 62
256
370
-1
 48
1.0
  6
BYLAYER
 10
-28.9753671553398675
 20
72.6063227151275896
 30
0.0
 11
-51.9472671097893439
 21
58.4185881361763322
 31
0.0
  0
LINE
  5
47
100
AcDbEntity
100
AcDbLine
  8
0
 62
256
370
-1
 48
1.0
  6
BYLAYER
 10
-51.9472671097893439
 20
58.4185881361763322
 30
0.0
 11
-11.485949977224692
 21
-7.0938672894756181
 31
0.0
  0
LINE
  5
48
100
AcDbEntity
100
AcDbLine
  8
construction
 62
256
370
-1
 48
1.0
  6
BYLAYER
 10
-25.6736845561759246
 20
15.8780326649737606
 30
0.0
 11
-2.7017846017265152
 21
30.0657672439250021
 31
0.0
  0
LINE
  5
49
100
AcDbEntity
100
AcDbLine
  8
construction
 62
256
370
-1
 48
1.0
  6
BYLAYER
 10
-27.0000000000000036
 20
-13.4999999999999982
 30
0.0
 11
-26.9999999999999822
 21
13.5000000000000355
 31
0.0
  0
LINE
  5
4A
100
AcDbEntity
100
AcDbLine
  8
construction
 62
256
370
-1
 48
1.0
  6
BYLAYER
 10
-37.0000000000000071
 20
-13.499999999999984
 30
0.0
 11
-37.0000000000000071
 21
13.4999999999999858
 31
0.0
  0
LINE
  5
4B
100
AcDbEntity
100
AcDbLine
  8
construction
 62
256
370
-1
 48
1.0
  6
BYLAYER
 10
-0.0184131743153287
 20
-30.18691208048633
 30
0.0
 11
-24.1605775689782725
 21
-18.0974167088395248
 31
0.0
  0
LINE
  5
4C
100
AcDbEntity
100
AcDbLine
  8
construction
 62
256
370
-1
 48
1.0
  6
BYLAYER
 10
-4.4960040527030261
 20
-39.1284544488800066
 30
0.0
 11
-28.6381684473659455
 21
-27.0389590772332333
 31
0.0
  0
LINE
  5
4D
100
AcDbEntity
100
AcDbLine
  8
construction
 62
256
370
-1
 48
1.0
  6
BYLAYER
 10
30.92840106689858
 20
-24.3861437592142991
 30
0.0
 11
7.9565011124492129
 21
-38.573878338165521
 31
0.0
  0
CIRCLE
  5
4E
100
AcDbEntity
100
AcDbCircle
  8
trous
 62
256
370
-1
 48
1.0
  6
BYLAYER
 10
29.9518841111192629
 20
-48.4962332371709195
 30
0.0
 40
3.5
  0
LINE
  5
4F
100
AcDbEntity
100
AcDbLine
  8
0
 62
256
370
-1
 48
1.0
  6
BYLAYER
 10
-11.4859499772246902
 20
-7.0938672894756181
 30
0.0
 11
28.9753671553398604
 21
-72.6063227151275896
 31
0.0
  0
LINE
  5
50
100
AcDbEntity
100
AcDbLine
  8
0
 62
256
370
-1
 48
1.0
  6
BYLAYER
 10
28.9753671553398604
 20
-72.6063227151275896
 30
0.0
 11
51.9472671097893297
 21
-58.4185881361763393
 31
0.0
  0
LINE
  5
51
100
AcDbEntity
100
AcDbLine
  8
0
 62
256
370
-1
 48
1.0
  6
BYLAYER
 10
51.9472671097893297
 20
-58.4185881361763393
 30
0.0
 11
28.915734118580108
 21
-21.1273582553613366
 31
0.0
  0
LINE
  5
52
100
AcDbEntity
100
AcDbLine
  8
construction
 62
256
370
-1
 48
1.0
  6
BYLAYER
 10
25.6736845561759246
 20
-15.8780326649737642
 30
0.0
 11
2.7017846017265121
 21
-30.0657672439250057
 31
0.0
  0
ARC
  5
53
100
AcDbEntity
  8
0
 62
256
370
-1
 48
1.0
  6
BYLAYER
100
AcDbCircle
 10
29.9540526919505439
 20
18.5
 30
0.0
 40
5.0
100
AcDbArc
 50
153.3999999999999773
 51
270.0000000000001137
  0
ARC
  5
54
100
AcDbEntity
  8
0
 62
256
370
-1
 48
1.0
  6
BYLAYER
100
AcDbCircle
 10
33.169789665700371
 20
-18.5
 30
0.0
 40
5.0
100
AcDbArc
 50
90.0
 51
211.6999999999999318
  0
ARC
  5
55
100
AcDbEntity
  8
0
 62
256
370
-1
 48
1.0
  6
BYLAYER
100
AcDbCircle
 10
-1.6897786170104525
 20
37.9424510896739378
 30
0.0
 40
5.0
100
AcDbArc
 50
211.6999999999999602
 51
333.3999999999999773
  0
LINE
  5
56
100
AcDbEntity
100
AcDbLine
  8
construction
 62
256
370
-1
 48
1.0
  6
BYLAYER
 10
21.8583627752071514
 20
13.5
 30
0.0
 11
106.9394737176122874
 21
66.0471651072267605
 31
0.0
  0
CIRCLE
  5
57
100
AcDbEntity
100
AcDbCircle
  8
marque_cours
 62
256
370
-1
 48
1.0
  6
BYLAYER
 10
-30.0
 20
60.0
 30
0.0
 40
2.0
  0
CIRCLE
  5
58
100
AcDbEntity
100
AcDbCircle
  8
marque_cours
 62
256
370
-1
 48
1.0
  6
BYLAYER
 10
40.9880031008462424
 20
-54.9476209274811325
 30
0.0
 40
2.0
  0
ENDSEC
  0
SECTION
  2
OBJECTS
  0
DICTIONARY
  5
C
100
AcDbDictionary
280
0
281
1
  3
ACAD_GROUP
350
D
  3
ACAD_LAYOUT
350
1A
  3
ACAD_MLINESTYLE
350
17
  3
ACAD_PLOTSETTINGS
350
19
  3
ACAD_PLOTSTYLENAME
350
E
  3
AcDbVariableDictionary
350
59
  3
QCAD_OBJECTS
350
5A
  0
DICTIONARY
  5
D
100
AcDbDictionary
280
0
281
1
  0
ACDBDICTIONARYWDFLT
  5
E
100
AcDbDictionary
281
1
  3
Normal
350
F
100
AcDbDictionaryWithDefault
340
F
  0
ACDBPLACEHOLDER
  5
F
  0
DICTIONARY
  5
17
100
AcDbDictionary
280
0
281
1
  3
Standard
350
18
  0
MLINESTYLE
  5
18
100
AcDbMlineStyle
  2
STANDARD
 70
0
  3

 62
256
 51
90.0
 52
90.0
 71
2
 49
0.5
 62
256
  6
BYLAYER
 49
-0.5
 62
256
  6
BYLAYER
  0
DICTIONARY
  5
19
100
AcDbDictionary
280
0
281
1
  0
DICTIONARY
  5
1A
100
AcDbDictionary
281
1
  3
Layout1
350
1E
  3
Layout2
350
26
  3
Model
350
22
  0
LAYOUT
  5
1E
100
AcDbPlotSettings
  1

  2
none_device
  4

  6

 40
0.0
 41
0.0
 42
0.0
 43
0.0
 44
0.0
 45
0.0
 46
0.0
 47
0.0
 48
0.0
 49
0.0
140
0.0
141
0.0
142
1.0
143
1.0
 70
688
 72
0
 73
0
 74
5
  7

 75
16
147
1.0
148
0.0
149
0.0
100
AcDbLayout
  1
Layout1
 70
1
 71
1
 10
0.0
 20
0.0
 11
420.0
 21
297.0
 12
0.0
 22
0.0
 32
0.0
 14
100000000000000000000.0
 24
100000000000000000000.0
 34
100000000000000000000.0
 15
-100000000000000000000.0
 25
-100000000000000000000.0
 35
-100000000000000000000.0
146
0.0
 13
0.0
 23
0.0
 33
0.0
 16
1.0
 26
0.0
 36
0.0
 17
0.0
 27
1.0
 37
0.0
 76
0
330
1B
  0
LAYOUT
  5
22
100
AcDbPlotSettings
  1

  2
none_device
  4

  6

 40
0.0
 41
0.0
 42
0.0
 43
0.0
 44
0.0
 45
0.0
 46
0.0
 47
0.0
 48
0.0
 49
0.0
140
0.0
141
0.0
142
1.0
143
1.0
 70
1712
 72
0
 73
0
 74
0
  7

 75
0
147
1.0
148
0.0
149
0.0
100
AcDbLayout
  1
Model
 70
1
 71
0
 10
0.0
 20
0.0
 11
12.0
 21
9.0
 12
0.0
 22
0.0
 32
0.0
 14
0.0
 24
0.0
 34
0.0
 15
0.0
 25
0.0
 35
0.0
146
0.0
 13
0.0
 23
0.0
 33
0.0
 16
1.0
 26
0.0
 36
0.0
 17
0.0
 27
1.0
 37
0.0
 76
0
330
1F
  0
LAYOUT
  5
26
100
AcDbPlotSettings
  1

  2
none_device
  4

  6

 40
0.0
 41
0.0
 42
0.0
 43
0.0
 44
0.0
 45
0.0
 46
0.0
 47
0.0
 48
0.0
 49
0.0
140
0.0
141
0.0
142
1.0
143
1.0
 70
688
 72
0
 73
0
 74
5
  7

 75
16
147
1.0
148
0.0
149
0.0
100
AcDbLayout
  1
Layout2
 70
1
 71
2
 10
0.0
 20
0.0
 11
12.0
 21
9.0
 12
0.0
 22
0.0
 32
0.0
 14
0.0
 24
0.0
 34
0.0
 15
0.0
 25
0.0
 35
0.0
146
0.0
 13
0.0
 23
0.0
 33
0.0
 16
1.0
 26
0.0
 36
0.0
 17
0.0
 27
1.0
 37
0.0
 76
0
330
23
  0
DICTIONARY
  5
59
100
AcDbDictionary
281
1
  3
DIMASSOC
350
5C
  3
HIDETEXT
350
5B
  0
DICTIONARYVAR
  5
5B
100
DictionaryVariables
280
0
  1
2
  0
DICTIONARYVAR
  5
5C
100
DictionaryVariables
280
0
  1
1
  0
DICTIONARY
  5
5A
100
AcDbDictionary
281
1
  3
ColorSettings/BackgroundColor
350
5D
  3
ColorSettings/ColorMode
350
5E
  3
Grid/DisplayGrid00
350
5F
  3
Grid/DisplayGrid01
350
60
  3
Grid/DisplayGrid02
350
61
  3
Grid/DisplayGrid03
350
62
  3
Grid/GridSpacingX00
350
63
  3
Grid/GridSpacingX01
350
64
  3
Grid/GridSpacingX02
350
65
  3
Grid/GridSpacingX03
350
66
  3
Grid/GridSpacingY00
350
67
  3
Grid/GridSpacingY01
350
68
  3
Grid/GridSpacingY02
350
69
  3
Grid/GridSpacingY03
350
6A
  3
Grid/IsometricGrid00
350
6B
  3
Grid/IsometricGrid01
350
6C
  3
Grid/IsometricGrid02
350
6D
  3
Grid/IsometricGrid03
350
6E
  3
Grid/IsometricProjection00
350
6F
  3
Grid/IsometricProjection01
350
70
  3
Grid/IsometricProjection02
350
71
  3
Grid/IsometricProjection03
350
72
  3
Grid/MetaGridSpacingX00
350
73
  3
Grid/MetaGridSpacingX01
350
74
  3
Grid/MetaGridSpacingX02
350
75
  3
Grid/MetaGridSpacingX03
350
76
  3
Grid/MetaGridSpacingY00
350
77
  3
Grid/MetaGridSpacingY01
350
78
  3
Grid/MetaGridSpacingY02
350
79
  3
Grid/MetaGridSpacingY03
350
7A
  3
MultiPageSettings/Columns
350
7B
  3
MultiPageSettings/GlueMarginsBottom
350
7C
  3
MultiPageSettings/GlueMarginsLeft
350
7D
  3
MultiPageSettings/GlueMarginsRight
350
7E
  3
MultiPageSettings/GlueMarginsTop
350
7F
  3
MultiPageSettings/PrintCropMarks
350
80
  3
MultiPageSettings/Rows
350
81
  3
PageSettings/OffsetX
350
82
  3
PageSettings/OffsetY
350
83
  3
PageSettings/PageOrientation
350
84
  3
PageSettings/PaperHeight
350
85
  3
PageSettings/PaperWidth
350
86
  3
PageSettings/Scale
350
87
  3
PageSettings/ShowPaperBorders
350
88
  3
UnitSettings/PaperUnit
350
89
  0
XRECORD
  5
5D
330
5A
100
AcDbXrecord
280
1
1000
Blanc
  0
XRECORD
  5
5E
330
5A
100
AcDbXrecord
280
1
1000
FullColor
  0
XRECORD
  5
5F
330
5A
100
AcDbXrecord
280
1
290
1
  0
XRECORD
  5
60
330
5A
100
AcDbXrecord
280
1
290
1
  0
XRECORD
  5
61
330
5A
100
AcDbXrecord
280
1
290
1
  0
XRECORD
  5
62
330
5A
100
AcDbXrecord
280
1
290
1
  0
XRECORD
  5
63
330
5A
100
AcDbXrecord
280
1
1000
auto
  0
XRECORD
  5
64
330
5A
100
AcDbXrecord
280
1
1000
auto
  0
XRECORD
  5
65
330
5A
100
AcDbXrecord
280
1
1000
auto
  0
XRECORD
  5
66
330
5A
100
AcDbXrecord
280
1
1000
auto
  0
XRECORD
  5
67
330
5A
100
AcDbXrecord
280
1
1000
auto
  0
XRECORD
  5
68
330
5A
100
AcDbXrecord
280
1
1000
auto
  0
XRECORD
  5
69
330
5A
100
AcDbXrecord
280
1
1000
auto
  0
XRECORD
  5
6A
330
5A
100
AcDbXrecord
280
1
1000
auto
  0
XRECORD
  5
6B
330
5A
100
AcDbXrecord
280
1
290
0
  0
XRECORD
  5
6C
330
5A
100
AcDbXrecord
280
1
290
0
  0
XRECORD
  5
6D
330
5A
100
AcDbXrecord
280
1
290
0
  0
XRECORD
  5
6E
330
5A
100
AcDbXrecord
280
1
290
0
  0
XRECORD
  5
6F
330
5A
100
AcDbXrecord
280
1
 90
0
  0
XRECORD
  5
70
330
5A
100
AcDbXrecord
280
1
 90
0
  0
XRECORD
  5
71
330
5A
100
AcDbXrecord
280
1
 90
0
  0
XRECORD
  5
72
330
5A
100
AcDbXrecord
280
1
 90
0
  0
XRECORD
  5
73
330
5A
100
AcDbXrecord
280
1
1000
auto
  0
XRECORD
  5
74
330
5A
100
AcDbXrecord
280
1
1000
auto
  0
XRECORD
  5
75
330
5A
100
AcDbXrecord
280
1
1000
auto
  0
XRECORD
  5
76
330
5A
100
AcDbXrecord
280
1
1000
auto
  0
XRECORD
  5
77
330
5A
100
AcDbXrecord
280
1
1000
auto
  0
XRECORD
  5
78
330
5A
100
AcDbXrecord
280
1
1000
auto
  0
XRECORD
  5
79
330
5A
100
AcDbXrecord
280
1
1000
auto
  0
XRECORD
  5
7A
330
5A
100
AcDbXrecord
280
1
1000
auto
  0
XRECORD
  5
7B
330
5A
100
AcDbXrecord
280
1
 90
1
  0
XRECORD
  5
7C
330
5A
100
AcDbXrecord
280
1
 40
10.0
  0
XRECORD
  5
7D
330
5A
100
AcDbXrecord
280
1
 40
10.0
  0
XRECORD
  5
7E
330
5A
100
AcDbXrecord
280
1
 40
10.0
  0
XRECORD
  5
7F
330
5A
100
AcDbXrecord
280
1
 40
10.0
  0
XRECORD
  5
80
330
5A
100
AcDbXrecord
280
1
290
0
  0
XRECORD
  5
81
330
5A
100
AcDbXrecord
280
1
 90
1
  0
XRECORD
  5
82
330
5A
100
AcDbXrecord
280
1
 40
0.0
  0
XRECORD
  5
83
330
5A
100
AcDbXrecord
280
1
 40
0.0
  0
XRECORD
  5
84
330
5A
100
AcDbXrecord
280
1
1000
Portrait
  0
XRECORD
  5
85
330
5A
100
AcDbXrecord
280
1
 40
297.0
  0
XRECORD
  5
86
330
5A
100
AcDbXrecord
280
1
 40
210.0
  0
XRECORD
  5
87
330
5A
100
AcDbXrecord
280
1
1000
1:1
  0
XRECORD
  5
88
330
5A
100
AcDbXrecord
280
1
290
1
  0
XRECORD
  5
89
330
5A
100
AcDbXrecord
280
1
 90
4
  0
ENDSEC
  0
EOF
