999
dxflib 3.7.5.0
  0
SECTION
  2
HEADER
  9
$ACADVER
  1
AC1015
  9
$HANDSEED
  5
FFFF
  9
$DIMADEC
 70
0
  9
$DIMASZ
 40
2.5
  9
$DIMAUNIT
 70
0
  9
$DIMAZIN
 70
2
  9
$DIMDEC
 70
4
  9
$DIMEXE
 40
1.25
  9
$DIMEXO
 40
0.625
  9
$DIMGAP
 40
0.625
  9
$DIMLUNIT
 70
2
  9
$DIMSCALE
 40
1.0
  9
$DIMTSZ
 40
0.0
  9
$DIMTXT
 40
2.5
  9
$DIMZIN
 70
8
  9
$DWGCODEPAGE
  3
ANSI_1252
  9
$INSUNITS
 70
4
  9
$LTSCALE
 40
1
  0
ENDSEC
  0
SECTION
  2
TABLES
  0
TABLE
  2
VPORT
  5
8
100
AcDbSymbolTable
 70
1
  0
VPORT
  5
30
100
AcDbSymbolTableRecord
100
AcDbViewportTableRecord
  2
*Active
 70
0
 10
0.0
 20
0.0
 11
1.0
 21
1.0
 12
286.3055555555554861
 22
148.5
 13
0.0
 23
0.0
 14
10.0
 24
10.0
 15
10.0
 25
10.0
 16
0.0
 26
0.0
 36
1.0
 17
0.0
 27
0.0
 37
0.0
 40
297.0
 41
1.92798353909465
 42
50.0
 43
0.0
 44
0.0
 50
0.0
 51
0.0
 71
0
 72
100
 73
1
 74
3
 75
1
 76
1
 77
0
 78
0
281
0
 65
1
110
0.0
120
0.0
130
0.0
111
1.0
121
0.0
131
0.0
112
0.0
122
1.0
132
0.0
 79
0
146
0.0
  0
ENDTAB
  0
TABLE
  2
LTYPE
  5
5
100
AcDbSymbolTable
 70
3
  0
LTYPE
  5
16
100
AcDbSymbolTableRecord
100
AcDbLinetypeTableRecord
  2
Continuous
 70
0
  3
Solid line
 72
65
 73
0
 40
0.0
  0
LTYPE
  5
15
100
AcDbSymbolTableRecord
100
AcDbLinetypeTableRecord
  2
BYLAYER
 70
0
  3

 72
65
 73
0
 40
0.0
  0
LTYPE
  5
14
100
AcDbSymbolTableRecord
100
AcDbLinetypeTableRecord
  2
BYBLOCK
 70
0
  3

 72
65
 73
0
 40
0.0
  0
ENDTAB
  0
TABLE
  2
LAYER
  5
2
100
AcDbSymbolTable
 70
4
  0
LAYER
  5
31
100
AcDbSymbolTableRecord
100
AcDbLayerTableRecord
  2
layer 1
 70
0
 62
7
420
0
  6
Continuous
370
25
390
F
  0
LAYER
  5
32
100
AcDbSymbolTableRecord
100
AcDbLayerTableRecord
  2
layer 2
 70
1
 62
-7
420
0
  6
Continuous
370
25
390
F
  0
LAYER
  5
33
100
AcDbSymbolTableRecord
100
AcDbLayerTableRecord
  2
layer 3
 70
0
 62
7
420
0
  6
Continuous
370
25
390
F
  0
LAYER
  5
10
100
AcDbSymbolTableRecord
100
AcDbLayerTableRecord
  2
0
 70
1
 62
-7
420
16777215
  6
Continuous
370
25
390
F
  0
ENDTAB
  0
TABLE
  2
STYLE
  5
3
100
AcDbSymbolTable
 70
15
  0
STYLE
  5
34
100
AcDbSymbolTableRecord
100
AcDbTextStyleTableRecord
  2
Standard
 70
0
 40
0.0
 41
1.0
 50
0.0
 71
0
 42
2.5
  3

  4

1001
ACAD
1000
txt
1071
0
  0
STYLE
  5
35
100
AcDbSymbolTableRecord
100
AcDbTextStyleTableRecord
  2
textstyle0
 70
0
 40
0.0
 41
1.0
 50
0.0
 71
0
 42
1.0
  3

  4

1001
ACAD
1000
Standard
1071
0
  0
STYLE
  5
36
100
AcDbSymbolTableRecord
100
AcDbTextStyleTableRecord
  2
textstyle1
 70
0
 40
0.0
 41
1.0
 50
0.0
 71
0
 42
1.0
  3

  4

1001
ACAD
1000
Standard
1071
0
  0
STYLE
  5
37
100
AcDbSymbolTableRecord
100
AcDbTextStyleTableRecord
  2
textstyle2
 70
0
 40
0.0
 41
1.0
 50
0.0
 71
0
 42
1.0
  3

  4

1001
ACAD
1000
Standard
1071
0
  0
STYLE
  5
38
100
AcDbSymbolTableRecord
100
AcDbTextStyleTableRecord
  2
textstyle3
 70
0
 40
0.0
 41
1.0
 50
0.0
 71
0
 42
1.0
  3

  4

1001
ACAD
1000
Standard
1071
0
  0
STYLE
  5
39
100
AcDbSymbolTableRecord
100
AcDbTextStyleTableRecord
  2
textstyle4
 70
0
 40
0.0
 41
1.0
 50
0.0
 71
0
 42
1.0
  3

  4

1001
ACAD
1000
Standard
1071
0
  0
STYLE
  5
3A
100
AcDbSymbolTableRecord
100
AcDbTextStyleTableRecord
  2
textstyle5
 70
0
 40
0.0
 41
1.0
 50
0.0
 71
0
 42
1.0
  3

  4

1001
ACAD
1000
Standard
1071
0
  0
STYLE
  5
3B
100
AcDbSymbolTableRecord
100
AcDbTextStyleTableRecord
  2
textstyle6
 70
0
 40
0.0
 41
1.0
 50
0.0
 71
0
 42
1.0
  3

  4

1001
ACAD
1000
Standard
1071
0
  0
STYLE
  5
3C
100
AcDbSymbolTableRecord
100
AcDbTextStyleTableRecord
  2
textstyle7
 70
0
 40
0.0
 41
1.0
 50
0.0
 71
0
 42
1.0
  3

  4

1001
ACAD
1000
Standard
1071
0
  0
STYLE
  5
3D
100
AcDbSymbolTableRecord
100
AcDbTextStyleTableRecord
  2
textstyle8
 70
0
 40
0.0
 41
1.0
 50
0.0
 71
0
 42
1.0
  3

  4

1001
ACAD
1000
Standard
1071
0
  0
STYLE
  5
3E
100
AcDbSymbolTableRecord
100
AcDbTextStyleTableRecord
  2
textstyle9
 70
0
 40
0.0
 41
1.0
 50
0.0
 71
0
 42
1.0
  3

  4

1001
ACAD
1000
Standard
1071
0
  0
STYLE
  5
3F
100
AcDbSymbolTableRecord
100
AcDbTextStyleTableRecord
  2
textstyle10
 70
0
 40
0.0
 41
1.0
 50
0.0
 71
0
 42
1.0
  3

  4

1001
ACAD
1000
Standard
1071
0
  0
STYLE
  5
40
100
AcDbSymbolTableRecord
100
AcDbTextStyleTableRecord
  2
textstyle11
 70
0
 40
0.0
 41
1.0
 50
0.0
 71
0
 42
1.0
  3

  4

1001
ACAD
1000
Standard
1071
0
  0
STYLE
  5
41
100
AcDbSymbolTableRecord
100
AcDbTextStyleTableRecord
  2
textstyle12
 70
0
 40
0.0
 41
1.0
 50
0.0
 71
0
 42
1.0
  3

  4

1001
ACAD
1000
Standard
1071
0
  0
STYLE
  5
42
100
AcDbSymbolTableRecord
100
AcDbTextStyleTableRecord
  2
textstyle13
 70
0
 40
0.0
 41
1.0
 50
0.0
 71
0
 42
1.0
  3

  4

1001
ACAD
1000
Standard
1071
0
  0
ENDTAB
  0
TABLE
  2
VIEW
  5
6
100
AcDbSymbolTable
 70
0
  0
ENDTAB
  0
TABLE
  2
UCS
  5
7
100
AcDbSymbolTable
 70
0
  0
ENDTAB
  0
TABLE
  2
APPID
  5
9
100
AcDbSymbolTable
 70
1
  0
APPID
  5
12
100
AcDbSymbolTableRecord
100
AcDbRegAppTableRecord
  2
ACAD
 70
0
  0
APPID
  5
43
100
AcDbSymbolTableRecord
100
AcDbRegAppTableRecord
  2
QCAD
 70
0
  0
ENDTAB
  0
TABLE
  2
DIMSTYLE
  5
A
100
AcDbSymbolTable
 70
1
100
AcDbDimStyleTable
 71
0
  0
DIMSTYLE
105
27
100
AcDbSymbolTableRecord
100
AcDbDimStyleTableRecord
  2
Standard
 41
2.5
 42
0.625
 43
3.75
 44
1.25
 70
0
 73
0
 74
0
 77
1
 78
8
140
2.5
141
2.5
143
0.03937007874016
147
0.625
171
3
172
1
271
2
272
2
274
3
278
44
283
0
284
8
340
34
  0
ENDTAB
  0
TABLE
  2
BLOCK_RECORD
  5
1
100
AcDbSymbolTable
 70
1
  0
BLOCK_RECORD
  5
1F
100
AcDbSymbolTableRecord
100
AcDbBlockTableRecord
  2
*Model_Space
340
22
  0
BLOCK_RECORD
  5
1B
100
AcDbSymbolTableRecord
100
AcDbBlockTableRecord
  2
*Paper_Space
340
1E
  0
BLOCK_RECORD
  5
23
100
AcDbSymbolTableRecord
100
AcDbBlockTableRecord
  2
*Paper_Space0
340
26
  0
ENDTAB
  0
ENDSEC
  0
SECTION
  2
BLOCKS
  0
BLOCK
  5
20
100
AcDbEntity
  8
0
100
AcDbBlockBegin
  2
*Model_Space
 70
0
 10
0.0
 20
0.0
 30
0.0
  3
*Model_Space
  1

  0
ENDBLK
  5
21
100
AcDbEntity
  8
0
100
AcDbBlockEnd
  0
BLOCK
  5
1C
100
AcDbEntity
 67
1
  8
0
100
AcDbBlockBegin
  2
*Paper_Space
 70
0
 10
0.0
 20
0.0
 30
0.0
  3
*Paper_Space
  1

  0
ENDBLK
  5
1D
100
AcDbEntity
 67
1
  8
0
100
AcDbBlockEnd
  0
BLOCK
  5
24
100
AcDbEntity
  8
0
100
AcDbBlockBegin
  2
*Paper_Space0
 70
0
 10
0.0
 20
0.0
 30
0.0
  3
*Paper_Space0
  1

  0
ENDBLK
  5
25
100
AcDbEntity
  8
0
100
AcDbBlockEnd
  0
ENDSEC
  0
SECTION
  2
ENTITIES
  0
LINE
  5
44
100
AcDbEntity
100
AcDbLine
  8
layer 1
 62
3
420
65280
370
25
 48
1.0
  6
BYLAYER
 10
16.2171773490857802
 20
47.0981028624128584
 30
0.0
 11
76.5000000000000284
 21
-0.0000000000000346
 31
0.0
  0
LINE
  5
45
100
AcDbEntity
100
AcDbLine
  8
layer 1
 62
14
420
8388608
370
25
 48
1.0
  6
BYLAYER
 10
76.5000000000000284
 20
-0.0000000000000346
 30
0.0
 11
82.4418754724849236
 21
85.3935250230922662
 31
0.0
  0
LINE
  5
46
100
AcDbEntity
100
AcDbLine
  8
layer 1
 62
3
420
65280
370
25
 48
1.0
  6
BYLAYER
 10
82.4418754724849236
 20
85.3935250230922662
 30
0.0
 11
16.2171773490857802
 21
47.0981028624128584
 31
0.0
  0
LINE
  5
47
100
AcDbEntity
100
AcDbLine
  8
layer 1
 62
14
420
8388608
370
-1
 48
1.0
  6
BYLAYER
 10
82.4418754724849236
 20
85.3935250230922378
 30
0.0
 11
153.423899724942487
 21
37.5509474062505078
 31
0.0
  0
LINE
  5
48
100
AcDbEntity
100
AcDbLine
  8
layer 1
 62
14
420
8388608
370
-1
 48
1.0
  6
BYLAYER
 10
153.423899724942487
 20
37.5509474062505078
 30
0.0
 11
76.5000000000000142
 21
-0.0000000000000209
 31
0.0
  0
LINE
  5
49
100
AcDbEntity
100
AcDbLine
  8
layer 1
 62
3
420
65280
370
-1
 48
1.0
  6
BYLAYER
 10
82.4418754724849236
 20
85.3935250230922662
 30
0.0
 11
153.3714403468441674
 21
114.0509294194094991
 31
0.0
  0
LINE
  5
4A
100
AcDbEntity
100
AcDbLine
  8
layer 1
 62
3
420
65280
370
-1
 48
1.0
  6
BYLAYER
 10
153.3714403468441674
 20
114.0509294194094991
 30
0.0
 11
153.423899724942487
 21
37.5509474062505078
 31
0.0
  0
LINE
  5
4B
100
AcDbEntity
100
AcDbLine
  8
layer 1
 62
3
420
65280
370
-1
 48
1.0
  6
BYLAYER
 10
101.1009966602630783
 20
169.9083435808970535
 30
0.0
 11
153.3714403468441674
 21
114.0509294194094991
 31
0.0
  0
LINE
  5
4C
100
AcDbEntity
100
AcDbLine
  8
layer 1
 62
14
420
8388608
370
-1
 48
1.0
  6
BYLAYER
 10
101.1009966602630357
 20
169.908343580897025
 30
0.0
 11
82.0193969222525112
 21
86.4622379111993382
 31
0.0
  0
LINE
  5
4D
100
AcDbEntity
100
AcDbLine
  8
layer 1
 62
3
420
65280
370
-1
 48
1.0
  6
BYLAYER
 10
186.6666194488272481
 20
182.9253154316772338
 30
0.0
 11
153.3714403468441674
 21
114.0509294194094991
 31
0.0
  0
LINE
  5
4E
100
AcDbEntity
100
AcDbLine
  8
layer 1
 62
14
420
8388608
370
-1
 48
1.0
  6
BYLAYER
 10
186.6666194488272481
 20
182.9253154316772338
 30
0.0
 11
101.9459651973532743
 21
170.6872296662396309
 31
0.0
  0
LINE
  5
4F
100
AcDbEntity
100
AcDbLine
  8
layer 1
 62
3
420
65280
370
-1
 48
1.0
  6
BYLAYER
 10
229.6142004384239499
 20
107.7826335092112942
 30
0.0
 11
153.3714403468441674
 21
114.0509294194094991
 31
0.0
  0
LINE
  5
50
100
AcDbEntity
100
AcDbLine
  8
layer 1
 62
14
420
8388608
370
-1
 48
1.0
  6
BYLAYER
 10
229.6142004384239499
 20
107.7826335092113084
 30
0.0
 11
187.6974699516883618
 21
182.4173955527950568
 31
0.0
  0
LINE
  5
51
100
AcDbEntity
100
AcDbLine
  8
layer 1
 62
3
420
65280
370
-1
 48
1.0
  6
BYLAYER
 10
174.9705617953241301
 20
40.6634103670950964
 30
0.0
 11
153.3714403468441674
 21
114.0509294194094991
 31
0.0
  0
LINE
  5
52
100
AcDbEntity
100
AcDbLine
  8
layer 1
 62
14
420
8388608
370
-1
 48
1.0
  6
BYLAYER
 10
174.9705617953242154
 20
40.6634103670950893
 30
0.0
 11
229.5114376826916214
 21
106.6380483535121186
 31
0.0
  0
LINE
  5
53
100
AcDbEntity
100
AcDbLine
  8
layer 1
 62
14
420
8388608
370
-1
 48
1.0
  6
BYLAYER
 10
174.9705617953241585
 20
40.663410367095004
 30
0.0
 11
260.419333440223113
 21
26.9002427180116825
 31
0.0
  0
LINE
  5
54
100
AcDbEntity
100
AcDbLine
  8
layer 1
 62
14
420
8388608
370
-1
 48
1.0
  6
BYLAYER
 10
260.419333440223113
 20
26.9002427180116825
 30
0.0
 11
229.6142004384239499
 21
107.7826335092112657
 31
0.0
  0
LINE
  5
55
100
AcDbEntity
100
AcDbLine
  8
layer 1
 62
14
420
8388608
370
-1
 48
1.0
  6
BYLAYER
 10
186.6666194488272481
 20
182.9253154316772338
 30
0.0
 11
273.2158813969747371
 21
182.5476706385244654
 31
0.0
  0
LINE
  5
56
100
AcDbEntity
100
AcDbLine
  8
layer 1
 62
14
420
8388608
370
-1
 48
1.0
  6
BYLAYER
 10
273.2158813969747371
 20
182.5476706385244654
 30
0.0
 11
229.6142004384239499
 21
107.7826335092113084
 31
0.0
  0
LINE
  5
57
100
AcDbEntity
100
AcDbLine
  8
layer 1
 62
3
420
65280
370
-1
 48
1.0
  6
BYLAYER
 10
229.6142004384239499
 20
107.7826335092113652
 30
0.0
 11
303.9692169826827239
 21
89.7942618568630593
 31
0.0
  0
LINE
  5
58
100
AcDbEntity
100
AcDbLine
  8
layer 1
 62
3
420
65280
370
-1
 48
1.0
  6
BYLAYER
 10
303.9692169826827239
 20
89.7942618568630593
 30
0.0
 11
260.419333440223113
 21
26.9002427180116825
 31
0.0
  0
LINE
  5
59
100
AcDbEntity
100
AcDbLine
  8
layer 1
 62
14
420
8388608
370
-1
 48
1.0
  6
BYLAYER
 10
346.9685953883707157
 20
26.5225979248590953
 30
0.0
 11
260.4193334402230562
 21
26.9002427180117003
 31
0.0
  0
LINE
  5
5A
100
AcDbEntity
100
AcDbLine
  8
layer 1
 62
3
420
65280
370
-1
 48
1.0
  6
BYLAYER
 10
303.9692169826827239
 20
89.7942618568630593
 30
0.0
 11
346.9685953883707157
 21
26.5225979248590953
 31
0.0
  0
LINE
  5
5B
100
AcDbEntity
100
AcDbLine
  8
layer 1
 62
14
420
8388608
370
-1
 48
1.0
  6
BYLAYER
 10
229.6142004384240067
 20
107.7826335092112657
 30
0.0
 11
293.9839632778488863
 21
165.6397937519595303
 31
0.0
  0
LINE
  5
5C
100
AcDbEntity
100
AcDbLine
  8
layer 1
 62
3
420
65280
370
-1
 48
1.0
  6
BYLAYER
 10
293.9839632778489431
 20
165.6397937519595871
 30
0.0
 11
303.9692169826827239
 21
89.7942618568630593
 31
0.0
  0
LINE
  5
5D
100
AcDbEntity
100
AcDbLine
  8
layer 2
 62
3
420
65280
370
25
 48
1.0
  6
BYLAYER
 10
0.0
 20
0.0
 30
0.0
 11
27.5397558211839204
 21
71.3709454141499151
 31
0.0
  0
LINE
  5
5E
100
AcDbEntity
100
AcDbLine
  8
layer 2
 62
14
420
8388608
370
25
 48
1.0
  6
BYLAYER
 10
27.5397558211839204
 20
71.3709454141499151
 30
0.0
 11
-55.8932451454129904
 21
52.23212753770202
 31
0.0
  0
LINE
  5
5F
100
AcDbEntity
100
AcDbLine
  8
layer 2
 62
3
420
65280
370
25
 48
1.0
  6
BYLAYER
 10
-55.8932451454129904
 20
52.23212753770202
 30
0.0
 11
0.0
 21
0.0
 31
0.0
  0
LINE
  5
60
100
AcDbEntity
100
AcDbLine
  8
layer 2
 62
14
420
8388608
370
-1
 48
1.0
  6
BYLAYER
 10
-39.9931559109145169
 20
153.7679739767996523
 30
0.0
 11
-51.6645155020576681
 21
239.5275024541245443
 31
0.0
  0
LINE
  5
61
100
AcDbEntity
100
AcDbLine
  8
layer 2
 62
14
420
8388608
370
-1
 48
1.0
  6
BYLAYER
 10
-51.6645155020576681
 20
239.5275024541245443
 30
0.0
 11
-120.0987659844243893
 21
186.5400443128289965
 31
0.0
  0
LINE
  5
62
100
AcDbEntity
100
AcDbLine
  8
layer 2
 62
14
420
8388608
370
-1
 48
1.0
  6
BYLAYER
 10
-55.8932451454129406
 20
52.2321275377020271
 30
0.0
 11
-30.7514471415221387
 21
134.0566348269704804
 31
0.0
  0
LINE
  5
63
100
AcDbEntity
100
AcDbLine
  8
layer 2
 62
14
420
8388608
370
-1
 48
1.0
  6
BYLAYER
 10
-30.7514471415221387
 20
134.0566348269704804
 30
0.0
 11
27.5397558211839559
 21
71.3709454141499151
 31
0.0
  0
LINE
  5
64
100
AcDbEntity
100
AcDbLine
  8
layer 2
 62
14
420
8388608
370
-1
 48
1.0
  6
BYLAYER
 10
-179.5113487869455184
 20
123.6030729518519564
 30
0.0
 11
-204.3100734215445868
 21
206.5243646437701841
 31
0.0
  0
LINE
  5
65
100
AcDbEntity
100
AcDbLine
  8
layer 2
 62
3
420
65280
370
-1
 48
1.0
  6
BYLAYER
 10
-55.8932451454129904
 20
52.23212753770202
 30
0.0
 11
-103.9324190555872747
 21
111.7677283999426265
 31
0.0
  0
LINE
  5
66
100
AcDbEntity
100
AcDbLine
  8
layer 2
 62
14
420
8388608
370
-1
 48
1.0
  6
BYLAYER
 10
-204.3100734215445868
 20
206.5243646437701841
 30
0.0
 11
-120.0987659844243893
 21
186.5400443128289965
 31
0.0
  0
LINE
  5
67
100
AcDbEntity
100
AcDbLine
  8
layer 2
 62
3
420
65280
370
-1
 48
1.0
  6
BYLAYER
 10
-103.9324190555872747
 20
111.7677283999426265
 30
0.0
 11
-30.7514471415221387
 21
134.0566348269704804
 31
0.0
  0
LINE
  5
68
100
AcDbEntity
100
AcDbLine
  8
layer 2
 62
3
420
65280
370
-1
 48
1.0
  6
BYLAYER
 10
-142.1824190555872747
 20
45.5167850104331109
 30
0.0
 11
-103.9324190555872747
 21
111.7677283999426265
 31
0.0
  0
LINE
  5
69
100
AcDbEntity
100
AcDbLine
  8
layer 2
 62
14
420
8388608
370
-1
 48
1.0
  6
BYLAYER
 10
-142.1824190555873031
 20
45.516785010433054
 30
0.0
 11
-56.7929887129104785
 21
51.5172171409672472
 31
0.0
  0
LINE
  5
6A
100
AcDbEntity
100
AcDbLine
  8
layer 2
 62
3
420
65280
370
-1
 48
1.0
  6
BYLAYER
 10
-120.0987659844244604
 20
186.5400443128289112
 30
0.0
 11
-124.5024140468312055
 21
262.9131932838021726
 31
0.0
  0
LINE
  5
6B
100
AcDbEntity
100
AcDbLine
  8
layer 2
 62
3
420
65280
370
-1
 48
1.0
  6
BYLAYER
 10
-179.5113487869455184
 20
123.6030729518519564
 30
0.0
 11
-103.9324190555872747
 21
111.7677283999426265
 31
0.0
  0
LINE
  5
6C
100
AcDbEntity
100
AcDbLine
  8
layer 2
 62
3
420
65280
370
-1
 48
1.0
  6
BYLAYER
 10
-124.5024140468312055
 20
262.9131932838021726
 30
0.0
 11
-51.6645155020576681
 21
239.5275024541245443
 31
0.0
  0
LINE
  5
6D
100
AcDbEntity
100
AcDbLine
  8
layer 2
 62
14
420
8388608
370
-1
 48
1.0
  6
BYLAYER
 10
-179.5113487869455184
 20
123.6030729518519564
 30
0.0
 11
-143.1733020497301823
 21
46.0988384912500493
 31
0.0
  0
LINE
  5
6E
100
AcDbEntity
100
AcDbLine
  8
layer 2
 62
3
420
65280
370
-1
 48
1.0
  6
BYLAYER
 10
-120.0987659844244604
 20
186.5400443128289112
 30
0.0
 11
-103.9324190555872747
 21
111.7677283999426265
 31
0.0
  0
LINE
  5
6F
100
AcDbEntity
100
AcDbLine
  8
layer 2
 62
14
420
8388608
370
-1
 48
1.0
  6
BYLAYER
 10
-120.0987659844244888
 20
186.5400443128289396
 30
0.0
 11
-179.3250346496717214
 21
124.7370581390853346
 31
0.0
  0
LINE
  5
70
100
AcDbEntity
100
AcDbLine
  8
layer 2
 62
14
420
8388608
370
-1
 48
1.0
  6
BYLAYER
 10
-76.4632401366568928
 20
322.448794146042701
 30
0.0
 11
-51.664515502057661
 21
239.5275024541244875
 31
0.0
  0
LINE
  5
71
100
AcDbEntity
100
AcDbLine
  8
layer 2
 62
3
420
65280
370
-1
 48
1.0
  6
BYLAYER
 10
-39.993155910914588
 20
153.7679739767996239
 30
0.0
 11
-103.9324190555872747
 21
111.7677283999426265
 31
0.0
  0
LINE
  5
72
100
AcDbEntity
100
AcDbLine
  8
layer 2
 62
3
420
65280
370
-1
 48
1.0
  6
BYLAYER
 10
-124.5024140468312055
 20
262.9131932838021726
 30
0.0
 11
-76.4632401366568928
 21
322.448794146042701
 31
0.0
  0
LINE
  5
73
100
AcDbEntity
100
AcDbLine
  8
layer 2
 62
14
420
8388608
370
-1
 48
1.0
  6
BYLAYER
 10
-39.9931559109146022
 20
153.7679739767996807
 30
0.0
 11
-118.9737380008292291
 21
186.7744529277308061
 31
0.0
  0
LINE
  5
74
100
AcDbEntity
100
AcDbLine
  8
layer 2
 62
14
420
8388608
370
-1
 48
1.0
  6
BYLAYER
 10
-120.0987659844244035
 20
186.5400443128290249
 30
0.0
 11
-194.169714098503789
 21
231.3107044022247862
 31
0.0
  0
LINE
  5
75
100
AcDbEntity
100
AcDbLine
  8
layer 2
 62
3
420
65280
370
-1
 48
1.0
  6
BYLAYER
 10
-194.1697140985038743
 20
231.3107044022248715
 30
0.0
 11
-124.5024140468312055
 21
262.9131932838021726
 31
0.0
  0
LINE
  5
76
100
AcDbEntity
100
AcDbLine
  8
layer 2
 62
3
420
65280
370
25
 48
1.0
  6
BYLAYER
 10
-0.0
 20
0.0
 30
0.0
 11
-56.671551615936373
 21
51.3866250832087488
 31
0.0
  0
LINE
  5
77
100
AcDbEntity
100
AcDbLine
  8
layer 2
 62
14
420
8388608
370
25
 48
1.0
  6
BYLAYER
 10
-56.671551615936373
 20
51.3866250832087488
 30
0.0
 11
-68.8515378655750823
 21
-33.3424014363885064
 31
0.0
  0
LINE
  5
78
100
AcDbEntity
100
AcDbLine
  8
layer 2
 62
3
420
65280
370
25
 48
1.0
  6
BYLAYER
 10
-68.8515378655750823
 20
-33.3424014363885064
 30
0.0
 11
-0.0
 21
0.0
 31
0.0
  0
LINE
  5
79
100
AcDbEntity
100
AcDbLine
  8
layer 2
 62
14
420
8388608
370
-1
 48
1.0
  6
BYLAYER
 10
-157.8557833391858196
 20
18.0442236468204023
 30
0.0
 11
-242.0670907763061734
 21
38.0285439777615935
 31
0.0
  0
LINE
  5
7A
100
AcDbEntity
100
AcDbLine
  8
layer 2
 62
14
420
8388608
370
-1
 48
1.0
  6
BYLAYER
 10
-242.0670907763061734
 20
38.0285439777615935
 30
0.0
 11
-217.2683661417069345
 21
-44.8927477141566342
 31
0.0
  0
LINE
  5
7B
100
AcDbEntity
100
AcDbLine
  8
layer 2
 62
14
420
8388608
370
-1
 48
1.0
  6
BYLAYER
 10
-68.8515378655750681
 20
-33.3424014363884638
 30
0.0
 11
-136.139034144652328
 21
19.5702893333423837
 31
0.0
  0
LINE
  5
7C
100
AcDbEntity
100
AcDbLine
  8
layer 2
 62
14
420
8388608
370
-1
 48
1.0
  6
BYLAYER
 10
-136.139034144652328
 20
19.5702893333423837
 30
0.0
 11
-56.6715516159363517
 21
51.3866250832087985
 31
0.0
  0
LINE
  5
7D
100
AcDbEntity
100
AcDbLine
  8
layer 2
 62
14
420
8388608
370
-1
 48
1.0
  6
BYLAYER
 10
-179.9394364103486623
 20
-122.9790356555756006
 30
0.0
 11
-266.2286103205230461
 21
-116.2636931283063433
 31
0.0
  0
LINE
  5
7E
100
AcDbEntity
100
AcDbLine
  8
layer 2
 62
3
420
65280
370
-1
 48
1.0
  6
BYLAYER
 10
-68.8515378655750823
 20
-33.3424014363885064
 30
0.0
 11
-141.6894364103486623
 21
-56.7280922660660494
 31
0.0
  0
LINE
  5
7F
100
AcDbEntity
100
AcDbLine
  8
layer 2
 62
14
420
8388608
370
-1
 48
1.0
  6
BYLAYER
 10
-266.2286103205230461
 20
-116.2636931283063433
 30
0.0
 11
-217.2683661417069345
 21
-44.8927477141566342
 31
0.0
  0
LINE
  5
80
100
AcDbEntity
100
AcDbLine
  8
layer 2
 62
3
420
65280
370
-1
 48
1.0
  6
BYLAYER
 10
-141.6894364103486623
 20
-56.7280922660660494
 30
0.0
 11
-136.139034144652328
 21
19.5702893333423837
 31
0.0
  0
LINE
  5
81
100
AcDbEntity
100
AcDbLine
  8
layer 2
 62
3
420
65280
370
-1
 48
1.0
  6
BYLAYER
 10
-93.6502625001743496
 20
-116.2636931283066417
 30
0.0
 11
-141.6894364103486623
 21
-56.7280922660660494
 31
0.0
  0
LINE
  5
82
100
AcDbEntity
100
AcDbLine
  8
layer 2
 62
14
420
8388608
370
-1
 48
1.0
  6
BYLAYER
 10
-93.6502625001743496
 20
-116.2636931283066417
 30
0.0
 11
-68.508464496283537
 21
-34.4391858390381529
 31
0.0
  0
LINE
  5
83
100
AcDbEntity
100
AcDbLine
  8
layer 2
 62
3
420
65280
370
-1
 48
1.0
  6
BYLAYER
 10
-217.2683661417068777
 20
-44.8927477141567266
 30
0.0
 11
-290.1062646864805288
 21
-21.5070568844789882
 31
0.0
  0
LINE
  5
84
100
AcDbEntity
100
AcDbLine
  8
layer 2
 62
3
420
65280
370
-1
 48
1.0
  6
BYLAYER
 10
-179.9394364103487192
 20
-122.9790356555755153
 30
0.0
 11
-141.6894364103486623
 21
-56.7280922660660494
 31
0.0
  0
LINE
  5
85
100
AcDbEntity
100
AcDbLine
  8
layer 2
 62
3
420
65280
370
-1
 48
1.0
  6
BYLAYER
 10
-290.1062646864805288
 20
-21.5070568844789882
 30
0.0
 11
-242.0670907763061734
 21
38.0285439777615935
 31
0.0
  0
LINE
  5
86
100
AcDbEntity
100
AcDbLine
  8
layer 2
 62
14
420
8388608
370
-1
 48
1.0
  6
BYLAYER
 10
-179.9394364103486623
 20
-122.9790356555756006
 30
0.0
 11
-94.5500060676719301
 21
-116.9786035250414216
 31
0.0
  0
LINE
  5
87
100
AcDbEntity
100
AcDbLine
  8
layer 2
 62
3
420
65280
370
-1
 48
1.0
  6
BYLAYER
 10
-217.2683661417069061
 20
-44.8927477141566342
 30
0.0
 11
-141.6894364103486623
 21
-56.7280922660660494
 31
0.0
  0
LINE
  5
88
100
AcDbEntity
100
AcDbLine
  8
layer 2
 62
14
420
8388608
370
-1
 48
1.0
  6
BYLAYER
 10
-217.2683661417069345
 20
-44.8927477141566342
 30
0.0
 11
-180.9303194044915983
 21
-122.3969821747586053
 31
0.0
  0
LINE
  5
89
100
AcDbEntity
100
AcDbLine
  8
layer 2
 62
14
420
8388608
370
-1
 48
1.0
  6
BYLAYER
 10
-328.3562646864804719
 20
44.7438865050304955
 30
0.0
 11
-242.0670907763061166
 21
38.0285439777615863
 31
0.0
  0
LINE
  5
8A
100
AcDbEntity
100
AcDbLine
  8
layer 2
 62
3
420
65280
370
-1
 48
1.0
  6
BYLAYER
 10
-157.855783339185848
 20
18.0442236468202601
 30
0.0
 11
-141.6894364103486623
 21
-56.7280922660660494
 31
0.0
  0
LINE
  5
8B
100
AcDbEntity
100
AcDbLine
  8
layer 2
 62
3
420
65280
370
-1
 48
1.0
  6
BYLAYER
 10
-290.1062646864805288
 20
-21.5070568844789882
 30
0.0
 11
-328.3562646864804719
 21
44.7438865050304955
 31
0.0
  0
LINE
  5
8C
100
AcDbEntity
100
AcDbLine
  8
layer 2
 62
14
420
8388608
370
-1
 48
1.0
  6
BYLAYER
 10
-157.8557833391859049
 20
18.0442236468202672
 30
0.0
 11
-217.0820520044331374
 21
-43.7587625269233413
 31
0.0
  0
LINE
  5
8D
100
AcDbEntity
100
AcDbLine
  8
layer 2
 62
14
420
8388608
370
-1
 48
1.0
  6
BYLAYER
 10
-217.2683661417069629
 20
-44.8927477141566413
 30
0.0
 11
-285.7026166240736984
 21
-97.8802058554521892
 31
0.0
  0
LINE
  5
8E
100
AcDbEntity
100
AcDbLine
  8
layer 2
 62
3
420
65280
370
-1
 48
1.0
  6
BYLAYER
 10
-285.7026166240738121
 20
-97.8802058554522318
 30
0.0
 11
-290.1062646864805288
 21
-21.5070568844789882
 31
0.0
  0
LINE
  5
8F
100
AcDbEntity
100
AcDbLine
  8
layer 2
 62
3
420
65280
370
25
 48
1.0
  6
BYLAYER
 10
-0.0
 20
-0.0
 30
0.0
 11
-68.3429112070795668
 21
-34.3729033941161006
 31
0.0
  0
LINE
  5
90
100
AcDbEntity
100
AcDbLine
  8
layer 2
 62
14
420
8388608
370
25
 48
1.0
  6
BYLAYER
 10
-68.3429112070795668
 20
-34.3729033941161006
 30
0.0
 11
6.320577413885264
 21
-76.2384437220165552
 31
0.0
  0
LINE
  5
91
100
AcDbEntity
100
AcDbLine
  8
layer 2
 62
3
420
65280
370
25
 48
1.0
  6
BYLAYER
 10
6.320577413885264
 20
-76.2384437220165552
 30
0.0
 11
-0.0
 21
-0.0
 31
0.0
  0
LINE
  5
92
100
AcDbEntity
100
AcDbLine
  8
layer 2
 62
14
420
8388608
370
-1
 48
1.0
  6
BYLAYER
 10
-73.6620003798799985
 20
-140.7762481410802877
 30
0.0
 11
-122.6222445586960959
 21
-212.1471935552302455
 31
0.0
  0
LINE
  5
93
100
AcDbEntity
100
AcDbLine
  8
layer 2
 62
14
420
8388608
370
-1
 48
1.0
  6
BYLAYER
 10
-122.6222445586960959
 20
-212.1471935552302455
 30
0.0
 11
-36.3330706485217263
 21
-218.8625360824992185
 31
0.0
  0
LINE
  5
94
100
AcDbEntity
100
AcDbLine
  8
layer 2
 62
14
420
8388608
370
-1
 48
1.0
  6
BYLAYER
 10
6.3205774138851938
 20
-76.238443722016541
 30
0.0
 11
-67.2677883637208822
 21
-119.9661514389921848
 31
0.0
  0
LINE
  5
95
100
AcDbEntity
100
AcDbLine
  8
layer 2
 62
14
420
8388608
370
-1
 48
1.0
  6
BYLAYER
 10
-67.2677883637208822
 20
-119.9661514389921848
 30
0.0
 11
-68.3429112070795526
 21
-34.3729033941161575
 31
0.0
  0
LINE
  5
96
100
AcDbEntity
100
AcDbLine
  8
layer 2
 62
14
420
8388608
370
-1
 48
1.0
  6
BYLAYER
 10
49.9561032616526148
 20
-212.1471935552303023
 30
0.0
 11
12.6271735302942982
 21
-290.2334814966490057
 31
0.0
  0
LINE
  5
97
100
AcDbEntity
100
AcDbLine
  8
layer 2
 62
3
420
65280
370
-1
 48
1.0
  6
BYLAYER
 10
6.320577413885264
 20
-76.2384437220165552
 30
0.0
 11
1.9169293514783539
 21
-152.6115926929896887
 31
0.0
  0
LINE
  5
98
100
AcDbEntity
100
AcDbLine
  8
layer 2
 62
14
420
8388608
370
-1
 48
1.0
  6
BYLAYER
 10
12.6271735302942982
 20
-290.2334814966490057
 30
0.0
 11
-36.3330706485217263
 21
-218.8625360824992185
 31
0.0
  0
LINE
  5
99
100
AcDbEntity
100
AcDbLine
  8
layer 2
 62
3
420
65280
370
-1
 48
1.0
  6
BYLAYER
 10
1.9169293514783539
 20
-152.6115926929896887
 30
0.0
 11
-67.2677883637208822
 21
-119.9661514389921848
 31
0.0
  0
LINE
  5
9A
100
AcDbEntity
100
AcDbLine
  8
layer 2
 62
3
420
65280
370
-1
 48
1.0
  6
BYLAYER
 10
74.754827896251868
 20
-129.2259018633121457
 30
0.0
 11
1.9169293514783539
 21
-152.6115926929896887
 31
0.0
  0
LINE
  5
9B
100
AcDbEntity
100
AcDbLine
  8
layer 2
 62
14
420
8388608
370
-1
 48
1.0
  6
BYLAYER
 10
74.7548278962519959
 20
-129.2259018633120888
 30
0.0
 11
7.467331617174664
 21
-76.3132110935812307
 31
0.0
  0
LINE
  5
9C
100
AcDbEntity
100
AcDbLine
  8
layer 2
 62
3
420
65280
370
-1
 48
1.0
  6
BYLAYER
 10
-36.3330706485217263
 20
-218.8625360824991901
 30
0.0
 11
-84.3722445586961243
 21
-278.3981369447398038
 31
0.0
  0
LINE
  5
9D
100
AcDbEntity
100
AcDbLine
  8
layer 2
 62
3
420
65280
370
-1
 48
1.0
  6
BYLAYER
 10
49.9561032616526148
 20
-212.1471935552303023
 30
0.0
 11
1.9169293514783539
 21
-152.6115926929896887
 31
0.0
  0
LINE
  5
9E
100
AcDbEntity
100
AcDbLine
  8
layer 2
 62
3
420
65280
370
-1
 48
1.0
  6
BYLAYER
 10
-84.3722445586961243
 20
-278.3981369447398038
 30
0.0
 11
-122.6222445586960959
 21
-212.1471935552302455
 31
0.0
  0
LINE
  5
9F
100
AcDbEntity
100
AcDbLine
  8
layer 2
 62
14
420
8388608
370
-1
 48
1.0
  6
BYLAYER
 10
49.9561032616526148
 20
-212.1471935552303023
 30
0.0
 11
75.097901265543527
 21
-130.322686265961778
 31
0.0
  0
LINE
  5
A0
100
AcDbEntity
100
AcDbLine
  8
layer 2
 62
3
420
65280
370
-1
 48
1.0
  6
BYLAYER
 10
-36.3330706485217263
 20
-218.8625360824991901
 30
0.0
 11
1.9169293514783539
 21
-152.6115926929896887
 31
0.0
  0
LINE
  5
A1
100
AcDbEntity
100
AcDbLine
  8
layer 2
 62
14
420
8388608
370
-1
 48
1.0
  6
BYLAYER
 10
-36.3330706485217263
 20
-218.8625360824992185
 30
0.0
 11
49.0563596941550273
 21
-212.862103951965139
 31
0.0
  0
LINE
  5
A2
100
AcDbEntity
100
AcDbLine
  8
layer 2
 62
14
420
8388608
370
-1
 48
1.0
  6
BYLAYER
 10
-159.9511742900544391
 20
-290.2334814966490626
 30
0.0
 11
-122.6222445586960674
 21
-212.1471935552301886
 31
0.0
  0
LINE
  5
A3
100
AcDbEntity
100
AcDbLine
  8
layer 2
 62
3
420
65280
370
-1
 48
1.0
  6
BYLAYER
 10
-73.6620003798798706
 20
-140.7762481410803446
 30
0.0
 11
1.9169293514783539
 21
-152.6115926929896887
 31
0.0
  0
LINE
  5
A4
100
AcDbEntity
100
AcDbLine
  8
layer 2
 62
3
420
65280
370
-1
 48
1.0
  6
BYLAYER
 10
-84.3722445586961243
 20
-278.3981369447398038
 30
0.0
 11
-159.9511742900544391
 21
-290.2334814966490626
 31
0.0
  0
LINE
  5
A5
100
AcDbEntity
100
AcDbLine
  8
layer 2
 62
14
420
8388608
370
-1
 48
1.0
  6
BYLAYER
 10
-73.662000379879899
 20
-140.7762481410804014
 30
0.0
 11
-37.3239536426644705
 21
-218.2804826016822801
 31
0.0
  0
LINE
  5
A6
100
AcDbEntity
100
AcDbLine
  8
layer 2
 62
14
420
8388608
370
-1
 48
1.0
  6
BYLAYER
 10
-36.3330706485217334
 20
-218.862536082499247
 30
0.0
 11
-11.5343460139225016
 21
-301.783827774417432
 31
0.0
  0
LINE
  5
A7
100
AcDbEntity
100
AcDbLine
  8
layer 2
 62
3
420
65280
370
-1
 48
1.0
  6
BYLAYER
 10
-11.5343460139225069
 20
-301.7838277744175457
 30
0.0
 11
-84.3722445586961243
 21
-278.3981369447398038
 31
0.0
  0
LINE
  5
A8
100
AcDbEntity
100
AcDbLine
  8
layer 2
 62
3
420
65280
370
25
 48
1.0
  6
BYLAYER
 10
0.0
 20
-0.0
 30
0.0
 11
7.4650918315749308
 21
-76.1348960986100849
 31
0.0
  0
LINE
  5
A9
100
AcDbEntity
100
AcDbLine
  8
layer 2
 62
14
420
8388608
370
25
 48
1.0
  6
BYLAYER
 10
7.4650918315749308
 20
-76.1348960986100849
 30
0.0
 11
73.4023132545238326
 21
-21.5487913555437274
 31
0.0
  0
LINE
  5
AA
100
AcDbEntity
100
AcDbLine
  8
layer 2
 62
3
420
65280
370
25
 48
1.0
  6
BYLAYER
 10
73.4023132545238326
 20
-21.5487913555437274
 30
0.0
 11
0.0
 21
-0.0
 31
0.0
  0
LINE
  5
AB
100
AcDbEntity
100
AcDbLine
  8
layer 2
 62
14
420
8388608
370
-1
 48
1.0
  6
BYLAYER
 10
104.819613306196203
 20
-119.4022236266307857
 30
0.0
 11
153.7798574850123146
 21
-190.7731690407807434
 31
0.0
  0
LINE
  5
AC
100
AcDbEntity
100
AcDbLine
  8
layer 2
 62
14
420
8388608
370
-1
 48
1.0
  6
BYLAYER
 10
153.7798574850123146
 20
-190.7731690407807434
 30
0.0
 11
191.1087872163706152
 21
-112.6868810993618837
 31
0.0
  0
LINE
  5
AD
100
AcDbEntity
100
AcDbLine
  8
layer 2
 62
14
420
8388608
370
-1
 48
1.0
  6
BYLAYER
 10
73.40231325452379
 20
-21.5487913555437878
 30
0.0
 11
87.7066559441830265
 21
-105.9451525343101963
 31
0.0
  0
LINE
  5
AE
100
AcDbEntity
100
AcDbLine
  8
layer 2
 62
14
420
8388608
370
-1
 48
1.0
  6
BYLAYER
 10
87.7066559441830265
 20
-105.9451525343101963
 30
0.0
 11
7.4650918315748465
 21
-76.1348960986101133
 31
0.0
  0
LINE
  5
AF
100
AcDbEntity
100
AcDbLine
  8
layer 2
 62
14
420
8388608
370
-1
 48
1.0
  6
BYLAYER
 10
215.9075118509699394
 20
-29.7655894074437128
 30
0.0
 11
275.3200946534907985
 21
-92.7025607684207387
 31
0.0
  0
LINE
  5
B0
100
AcDbEntity
100
AcDbLine
  8
layer 2
 62
3
420
65280
370
-1
 48
1.0
  6
BYLAYER
 10
73.4023132545238326
 20
-21.5487913555437274
 30
0.0
 11
143.0696133061963451
 21
-53.1512802371211848
 31
0.0
  0
LINE
  5
B1
100
AcDbEntity
100
AcDbLine
  8
layer 2
 62
14
420
8388608
370
-1
 48
1.0
  6
BYLAYER
 10
275.3200946534907985
 20
-92.7025607684207387
 30
0.0
 11
191.1087872163706152
 21
-112.6868810993618837
 31
0.0
  0
LINE
  5
B2
100
AcDbEntity
100
AcDbLine
  8
layer 2
 62
3
420
65280
370
-1
 48
1.0
  6
BYLAYER
 10
143.0696133061963451
 20
-53.1512802371211848
 30
0.0
 11
87.7066559441830265
 21
-105.9451525343101963
 31
0.0
  0
LINE
  5
B3
100
AcDbEntity
100
AcDbLine
  8
layer 2
 62
3
420
65280
370
-1
 48
1.0
  6
BYLAYER
 10
147.4732613686032607
 20
23.2218687338518777
 30
0.0
 11
143.0696133061963451
 21
-53.1512802371211848
 31
0.0
  0
LINE
  5
B4
100
AcDbEntity
100
AcDbLine
  8
layer 2
 62
14
420
8388608
370
-1
 48
1.0
  6
BYLAYER
 10
147.4732613686032607
 20
23.2218687338520127
 30
0.0
 11
73.8848955909971608
 21
-20.5058389831237093
 31
0.0
  0
LINE
  5
B5
100
AcDbEntity
100
AcDbLine
  8
layer 2
 62
3
420
65280
370
-1
 48
1.0
  6
BYLAYER
 10
191.1087872163705867
 20
-112.6868810993618695
 30
0.0
 11
229.3587872163705583
 21
-178.9378244888714562
 31
0.0
  0
LINE
  5
B6
100
AcDbEntity
100
AcDbLine
  8
layer 2
 62
3
420
65280
370
-1
 48
1.0
  6
BYLAYER
 10
215.9075118509699394
 20
-29.7655894074437128
 30
0.0
 11
143.0696133061963451
 21
-53.1512802371211848
 31
0.0
  0
LINE
  5
B7
100
AcDbEntity
100
AcDbLine
  8
layer 2
 62
3
420
65280
370
-1
 48
1.0
  6
BYLAYER
 10
229.3587872163705583
 20
-178.9378244888714562
 30
0.0
 11
153.7798574850123146
 21
-190.7731690407807434
 31
0.0
  0
LINE
  5
B8
100
AcDbEntity
100
AcDbLine
  8
layer 2
 62
14
420
8388608
370
-1
 48
1.0
  6
BYLAYER
 10
215.9075118509699394
 20
-29.7655894074437128
 30
0.0
 11
148.6200155718926794
 21
23.1471013622872839
 31
0.0
  0
LINE
  5
B9
100
AcDbEntity
100
AcDbLine
  8
layer 2
 62
3
420
65280
370
-1
 48
1.0
  6
BYLAYER
 10
191.1087872163705867
 20
-112.6868810993618695
 30
0.0
 11
143.0696133061963451
 21
-53.1512802371211848
 31
0.0
  0
LINE
  5
BA
100
AcDbEntity
100
AcDbLine
  8
layer 2
 62
14
420
8388608
370
-1
 48
1.0
  6
BYLAYER
 10
191.1087872163706152
 20
-112.6868810993618837
 30
0.0
 11
216.2505852202614847
 21
-30.8623738100934517
 31
0.0
  0
LINE
  5
BB
100
AcDbEntity
100
AcDbLine
  8
layer 2
 62
14
420
8388608
370
-1
 48
1.0
  6
BYLAYER
 10
213.1924402875332305
 20
-253.7101404017577977
 30
0.0
 11
153.7798574850122577
 21
-190.773169040780715
 31
0.0
  0
LINE
  5
BC
100
AcDbEntity
100
AcDbLine
  8
layer 2
 62
3
420
65280
370
-1
 48
1.0
  6
BYLAYER
 10
104.8196133061963025
 20
-119.4022236266306862
 30
0.0
 11
143.0696133061963451
 21
-53.1512802371211848
 31
0.0
  0
LINE
  5
BD
100
AcDbEntity
100
AcDbLine
  8
layer 2
 62
3
420
65280
370
-1
 48
1.0
  6
BYLAYER
 10
229.3587872163705583
 20
-178.9378244888714562
 30
0.0
 11
213.1924402875332305
 21
-253.7101404017577977
 31
0.0
  0
LINE
  5
BE
100
AcDbEntity
100
AcDbLine
  8
layer 2
 62
14
420
8388608
370
-1
 48
1.0
  6
BYLAYER
 10
104.8196133061963451
 20
-119.4022236266307289
 30
0.0
 11
190.2090436488731484
 21
-113.4017914960965498
 31
0.0
  0
LINE
  5
BF
100
AcDbEntity
100
AcDbLine
  8
layer 2
 62
14
420
8388608
370
-1
 48
1.0
  6
BYLAYER
 10
191.1087872163706436
 20
-112.6868810993618979
 30
0.0
 11
277.3979611265449989
 21
-119.4022236266308852
 31
0.0
  0
LINE
  5
C0
100
AcDbEntity
100
AcDbLine
  8
layer 2
 62
3
420
65280
370
-1
 48
1.0
  6
BYLAYER
 10
277.3979611265451126
 20
-119.402223626630942
 30
0.0
 11
229.3587872163705583
 21
-178.9378244888714562
 31
0.0
  0
MTEXT
  5
C1
100
AcDbEntity
100
AcDbMText
  8
layer 1
 62
256
370
-1
 48
1.0
  6
BYLAYER
 10
22.0076481968394262
 20
45.7170768316350191
 30
0.0
 40
1.0
 41
0.0
 71
7
 72
1
  1
\H5;S
  7
textstyle0
 50
322.0
 73
2
 44
1.0
  0
MTEXT
  5
C2
100
AcDbEntity
100
AcDbMText
  8
layer 1
 62
256
370
-1
 48
1.0
  6
BYLAYER
 10
53.1049023533136477
 20
64.3428528660945034
 30
0.0
 40
1.0
 41
0.0
 71
7
 72
1
  1
\H5;A
  7
textstyle1
 50
322.0
 73
2
 44
1.0
  0
MTEXT
  5
C3
100
AcDbEntity
100
AcDbMText
  8
layer 1
 62
256
370
-1
 48
1.0
  6
BYLAYER
 10
51.5219119596348278
 20
22.4182212252669189
 30
0.0
 40
1.0
 41
0.0
 71
7
 72
1
  1
\H5;A
  7
textstyle2
 50
322.0
 73
2
 44
1.0
  0
MTEXT
  5
C4
100
AcDbEntity
100
AcDbMText
  8
layer 1
 62
256
370
-1
 48
1.0
  6
BYLAYER
 10
98.6769351410183901
 20
127.4690927908258118
 30
0.0
 40
1.0
 41
0.0
 71
7
 72
1
  1
\H5;B
  7
textstyle3
 50
322.0
 73
2
 44
1.0
  0
MTEXT
  5
C5
100
AcDbEntity
100
AcDbMText
  8
layer 1
 62
256
370
-1
 48
1.0
  6
BYLAYER
 10
111.7646041867170936
 20
23.209000227372492
 30
0.0
 40
1.0
 41
0.0
 71
7
 72
1
  1
\H5;B
  7
textstyle4
 50
322.0
 73
2
 44
1.0
  0
MTEXT
  5
C6
100
AcDbEntity
100
AcDbMText
  8
layer 1
 62
256
370
-1
 48
1.0
  6
BYLAYER
 10
146.980799923445943
 20
84.5263677330996188
 30
0.0
 40
1.0
 41
0.0
 71
7
 72
1
  1
\H5;a
  7
textstyle5
 50
322.0
 73
2
 44
1.0
  0
MTEXT
  5
C7
100
AcDbEntity
100
AcDbMText
  8
layer 1
 62
256
370
-1
 48
1.0
  6
BYLAYER
 10
168.8976297488369767
 20
80.093245762653666
 30
0.0
 40
1.0
 41
0.0
 71
7
 72
1
  1
\H5;a
  7
textstyle6
 50
322.0
 73
2
 44
1.0
  0
MTEXT
  5
C8
100
AcDbEntity
100
AcDbMText
  8
layer 1
 62
256
370
-1
 48
1.0
  6
BYLAYER
 10
240.4394372553562107
 20
144.8753393654318984
 30
0.0
 40
1.0
 41
0.0
 71
7
 72
1
  1
\H5;b
  7
textstyle7
 50
322.0
 73
2
 44
1.0
  0
MTEXT
  5
C9
100
AcDbEntity
100
AcDbMText
  8
layer 1
 62
256
370
-1
 48
1.0
  6
BYLAYER
 10
269.8643149617388985
 20
128.1112473570429415
 30
0.0
 40
1.0
 41
0.0
 71
7
 72
1
  1
\H5;b
  7
textstyle8
 50
322.0
 73
2
 44
1.0
  0
MTEXT
  5
CA
100
AcDbEntity
100
AcDbMText
  8
layer 1
 62
256
370
-1
 48
1.0
  6
BYLAYER
 10
150.6765655159059065
 20
170.4701942518530586
 30
0.0
 40
1.0
 41
0.0
 71
7
 72
1
  1
\H5;C
  7
textstyle9
 50
322.0
 73
2
 44
1.0
  0
MTEXT
  5
CB
100
AcDbEntity
100
AcDbMText
  8
layer 1
 62
256
370
-1
 48
1.0
  6
BYLAYER
 10
216.1782749652402913
 20
43.1535572431141716
 30
0.0
 40
1.0
 41
0.0
 71
7
 72
1
  1
\H5;C
  7
textstyle10
 50
322.0
 73
2
 44
1.0
  0
MTEXT
  5
CC
100
AcDbEntity
100
AcDbMText
  8
layer 1
 62
256
370
-1
 48
1.0
  6
BYLAYER
 10
228.7402844985921888
 20
172.9310434126496716
 30
0.0
 40
1.0
 41
0.0
 71
7
 72
1
  1
\H5;D
  7
textstyle11
 50
322.0
 73
2
 44
1.0
  0
MTEXT
  5
CD
100
AcDbEntity
100
AcDbMText
  8
layer 1
 62
256
370
-1
 48
1.0
  6
BYLAYER
 10
310.0022090200610023
 20
33.3011768973975961
 30
0.0
 40
1.0
 41
0.0
 71
7
 72
1
  1
\H5;D
  7
textstyle12
 50
322.0
 73
2
 44
1.0
  0
LINE
  5
CE
100
AcDbEntity
100
AcDbLine
  8
layer 3
 62
256
370
-1
 48
1.0
  6
BYLAYER
 10
82.4418754724849094
 20
85.393525023092252
 30
0.0
 11
72.8961457362751446
 21
91.4251455700942159
 31
0.0
  0
LINE
  5
CF
100
AcDbEntity
100
AcDbLine
  8
layer 3
 62
256
370
-1
 48
1.0
  6
BYLAYER
 10
186.6666194488272481
 20
182.9253154316772338
 30
0.0
 11
175.3396638393749356
 21
191.3929052080833628
 31
0.0
  0
LINE
  5
D0
100
AcDbEntity
100
AcDbLine
  8
layer 3
 62
256
370
-1
 48
1.0
  6
BYLAYER
 10
101.1009966602630783
 20
169.9083435808970819
 30
0.0
 11
89.1234609817924763
 21
162.3891255982233304
 31
0.0
  0
LINE
  5
D1
100
AcDbEntity
100
AcDbLine
  8
layer 3
 62
256
370
-1
 48
1.0
  6
BYLAYER
 10
186.6666194488272481
 20
182.9253154316772338
 30
0.0
 11
196.7101573488820918
 21
192.8815871460370772
 31
0.0
  0
LINE
  5
D2
100
AcDbEntity
100
AcDbLine
  8
layer 3
 62
256
370
-1
 48
1.0
  6
BYLAYER
 10
19.8680630958465514
 20
60.7608636838610394
 30
0.0
 11
16.2171773490857802
 21
47.0981028624128584
 31
0.0
  0
LINE
  5
D3
100
AcDbEntity
100
AcDbLine
  8
layer 3
 62
256
370
-1
 48
1.0
  6
BYLAYER
 10
72.896145736275173
 20
91.4251455700942159
 30
0.0
 11
19.8680630958465514
 21
60.7608636838610394
 31
0.0
  0
LINE
  5
D4
100
AcDbEntity
100
AcDbLine
  8
layer 3
 62
256
370
-1
 48
1.0
  6
BYLAYER
 10
110.1190484358960759
 20
181.9716431553471523
 30
0.0
 11
101.1009966602630783
 21
169.9083435808970819
 31
0.0
  0
LINE
  5
D5
100
AcDbEntity
100
AcDbLine
  8
layer 3
 62
256
370
-1
 48
1.0
  6
BYLAYER
 10
89.1234609817924763
 20
162.3891255982233588
 30
0.0
 11
72.8961457362751588
 21
91.4251455700942017
 31
0.0
  0
LINE
  5
D6
100
AcDbEntity
100
AcDbLine
  8
layer 3
 62
256
370
-1
 48
1.0
  6
BYLAYER
 10
175.3396638393749356
 20
191.3929052080833628
 30
0.0
 11
110.1190484358960902
 21
181.9716431553471807
 31
0.0
  0
LINE
  5
D7
100
AcDbEntity
100
AcDbLine
  8
layer 3
 62
256
370
-1
 48
1.0
  6
BYLAYER
 10
196.7101573488820918
 20
192.8815871460370772
 30
0.0
 11
263.2596096826149505
 21
192.5912085385792807
 31
0.0
  0
LINE
  5
D8
100
AcDbEntity
100
AcDbLine
  8
layer 3
 62
256
370
-1
 48
1.0
  6
BYLAYER
 10
263.2596096826148937
 20
192.5912085385793091
 30
0.0
 11
273.2158813969747371
 21
182.5476706385244654
 31
0.0
  0
MTEXT
  5
D9
100
AcDbEntity
100
AcDbMText
  8
layer 3
 62
256
370
-1
 48
1.0
  6
BYLAYER
 10
20.0
 20
200.0
 30
0.0
 40
1.0
 41
0.0
 71
7
 72
1
  1
\H5;Ech:1/12.5
  7
textstyle13
 50
0.0
 73
2
 44
1.0
  0
ENDSEC
  0
SECTION
  2
OBJECTS
  0
DICTIONARY
  5
C
100
AcDbDictionary
280
0
281
1
  3
ACAD_GROUP
350
D
  3
ACAD_LAYOUT
350
1A
  3
ACAD_MLINESTYLE
350
17
  3
ACAD_PLOTSETTINGS
350
19
  3
ACAD_PLOTSTYLENAME
350
E
  3
AcDbVariableDictionary
350
DA
  3
QCAD_OBJECTS
350
DB
  0
DICTIONARY
  5
D
100
AcDbDictionary
280
0
281
1
  0
ACDBDICTIONARYWDFLT
  5
E
100
AcDbDictionary
281
1
  3
Normal
350
F
100
AcDbDictionaryWithDefault
340
F
  0
ACDBPLACEHOLDER
  5
F
  0
DICTIONARY
  5
17
100
AcDbDictionary
280
0
281
1
  3
Standard
350
18
  0
MLINESTYLE
  5
18
100
AcDbMlineStyle
  2
STANDARD
 70
0
  3

 62
256
 51
90.0
 52
90.0
 71
2
 49
0.5
 62
256
  6
BYLAYER
 49
-0.5
 62
256
  6
BYLAYER
  0
DICTIONARY
  5
19
100
AcDbDictionary
280
0
281
1
  0
DICTIONARY
  5
1A
100
AcDbDictionary
281
1
  3
Layout1
350
1E
  3
Layout2
350
26
  3
Model
350
22
  0
LAYOUT
  5
1E
100
AcDbPlotSettings
  1

  2
none_device
  4

  6

 40
0.0
 41
0.0
 42
0.0
 43
0.0
 44
0.0
 45
0.0
 46
0.0
 47
0.0
 48
0.0
 49
0.0
140
0.0
141
0.0
142
1.0
143
1.0
 70
688
 72
0
 73
0
 74
5
  7

 75
16
147
1.0
148
0.0
149
0.0
100
AcDbLayout
  1
Layout1
 70
1
 71
1
 10
0.0
 20
0.0
 11
420.0
 21
297.0
 12
0.0
 22
0.0
 32
0.0
 14
100000000000000000000.0
 24
100000000000000000000.0
 34
100000000000000000000.0
 15
-100000000000000000000.0
 25
-100000000000000000000.0
 35
-100000000000000000000.0
146
0.0
 13
0.0
 23
0.0
 33
0.0
 16
1.0
 26
0.0
 36
0.0
 17
0.0
 27
1.0
 37
0.0
 76
0
330
1B
  0
LAYOUT
  5
22
100
AcDbPlotSettings
  1

  2
none_device
  4

  6

 40
0.0
 41
0.0
 42
0.0
 43
0.0
 44
0.0
 45
0.0
 46
0.0
 47
0.0
 48
0.0
 49
0.0
140
0.0
141
0.0
142
1.0
143
1.0
 70
1712
 72
0
 73
0
 74
0
  7

 75
0
147
1.0
148
0.0
149
0.0
100
AcDbLayout
  1
Model
 70
1
 71
0
 10
0.0
 20
0.0
 11
12.0
 21
9.0
 12
0.0
 22
0.0
 32
0.0
 14
0.0
 24
0.0
 34
0.0
 15
0.0
 25
0.0
 35
0.0
146
0.0
 13
0.0
 23
0.0
 33
0.0
 16
1.0
 26
0.0
 36
0.0
 17
0.0
 27
1.0
 37
0.0
 76
0
330
1F
  0
LAYOUT
  5
26
100
AcDbPlotSettings
  1

  2
none_device
  4

  6

 40
0.0
 41
0.0
 42
0.0
 43
0.0
 44
0.0
 45
0.0
 46
0.0
 47
0.0
 48
0.0
 49
0.0
140
0.0
141
0.0
142
1.0
143
1.0
 70
688
 72
0
 73
0
 74
5
  7

 75
16
147
1.0
148
0.0
149
0.0
100
AcDbLayout
  1
Layout2
 70
1
 71
2
 10
0.0
 20
0.0
 11
12.0
 21
9.0
 12
0.0
 22
0.0
 32
0.0
 14
0.0
 24
0.0
 34
0.0
 15
0.0
 25
0.0
 35
0.0
146
0.0
 13
0.0
 23
0.0
 33
0.0
 16
1.0
 26
0.0
 36
0.0
 17
0.0
 27
1.0
 37
0.0
 76
0
330
23
  0
DICTIONARY
  5
DA
100
AcDbDictionary
281
1
  3
DIMASSOC
350
DD
  3
HIDETEXT
350
DC
  0
DICTIONARYVAR
  5
DC
100
DictionaryVariables
280
0
  1
2
  0
DICTIONARYVAR
  5
DD
100
DictionaryVariables
280
0
  1
1
  0
DICTIONARY
  5
DB
100
AcDbDictionary
281
1
  3
ColorSettings/BackgroundColor
350
DE
  3
ColorSettings/ColorMode
350
DF
  3
Grid/DisplayGrid00
350
E0
  3
Grid/DisplayGrid01
350
E1
  3
Grid/DisplayGrid02
350
E2
  3
Grid/DisplayGrid03
350
E3
  3
Grid/GridSpacingX00
350
E4
  3
Grid/GridSpacingX01
350
E5
  3
Grid/GridSpacingX02
350
E6
  3
Grid/GridSpacingX03
350
E7
  3
Grid/GridSpacingY00
350
E8
  3
Grid/GridSpacingY01
350
E9
  3
Grid/GridSpacingY02
350
EA
  3
Grid/GridSpacingY03
350
EB
  3
Grid/IsometricGrid00
350
EC
  3
Grid/IsometricGrid01
350
ED
  3
Grid/IsometricGrid02
350
EE
  3
Grid/IsometricGrid03
350
EF
  3
Grid/IsometricProjection00
350
F0
  3
Grid/IsometricProjection01
350
F1
  3
Grid/IsometricProjection02
350
F2
  3
Grid/IsometricProjection03
350
F3
  3
Grid/MetaGridSpacingX00
350
F4
  3
Grid/MetaGridSpacingX01
350
F5
  3
Grid/MetaGridSpacingX02
350
F6
  3
Grid/MetaGridSpacingX03
350
F7
  3
Grid/MetaGridSpacingY00
350
F8
  3
Grid/MetaGridSpacingY01
350
F9
  3
Grid/MetaGridSpacingY02
350
FA
  3
Grid/MetaGridSpacingY03
350
FB
  3
MultiPageSettings/Columns
350
FC
  3
MultiPageSettings/GlueMarginsBottom
350
FD
  3
MultiPageSettings/GlueMarginsLeft
350
FE
  3
MultiPageSettings/GlueMarginsRight
350
FF
  3
MultiPageSettings/GlueMarginsTop
350
100
  3
MultiPageSettings/PrintCropMarks
350
101
  3
MultiPageSettings/Rows
350
102
  3
PageSettings/OffsetX
350
103
  3
PageSettings/OffsetY
350
104
  3
PageSettings/PageOrientation
350
105
  3
PageSettings/PaperHeight
350
106
  3
PageSettings/PaperWidth
350
107
  3
PageSettings/Scale
350
108
  3
PageSettings/ShowPaperBorders
350
109
  3
UnitSettings/PaperUnit
350
10A
  0
XRECORD
  5
DE
330
DB
100
AcDbXrecord
280
1
1000
Blanc
  0
XRECORD
  5
DF
330
DB
100
AcDbXrecord
280
1
1000
FullColor
  0
XRECORD
  5
E0
330
DB
100
AcDbXrecord
280
1
290
1
  0
XRECORD
  5
E1
330
DB
100
AcDbXrecord
280
1
290
1
  0
XRECORD
  5
E2
330
DB
100
AcDbXrecord
280
1
290
1
  0
XRECORD
  5
E3
330
DB
100
AcDbXrecord
280
1
290
1
  0
XRECORD
  5
E4
330
DB
100
AcDbXrecord
280
1
1000
auto
  0
XRECORD
  5
E5
330
DB
100
AcDbXrecord
280
1
1000
auto
  0
XRECORD
  5
E6
330
DB
100
AcDbXrecord
280
1
1000
auto
  0
XRECORD
  5
E7
330
DB
100
AcDbXrecord
280
1
1000
auto
  0
XRECORD
  5
E8
330
DB
100
AcDbXrecord
280
1
1000
auto
  0
XRECORD
  5
E9
330
DB
100
AcDbXrecord
280
1
1000
auto
  0
XRECORD
  5
EA
330
DB
100
AcDbXrecord
280
1
1000
auto
  0
XRECORD
  5
EB
330
DB
100
AcDbXrecord
280
1
1000
auto
  0
XRECORD
  5
EC
330
DB
100
AcDbXrecord
280
1
290
0
  0
XRECORD
  5
ED
330
DB
100
AcDbXrecord
280
1
290
0
  0
XRECORD
  5
EE
330
DB
100
AcDbXrecord
280
1
290
0
  0
XRECORD
  5
EF
330
DB
100
AcDbXrecord
280
1
290
0
  0
XRECORD
  5
F0
330
DB
100
AcDbXrecord
280
1
 90
0
  0
XRECORD
  5
F1
330
DB
100
AcDbXrecord
280
1
 90
0
  0
XRECORD
  5
F2
330
DB
100
AcDbXrecord
280
1
 90
0
  0
XRECORD
  5
F3
330
DB
100
AcDbXrecord
280
1
 90
0
  0
XRECORD
  5
F4
330
DB
100
AcDbXrecord
280
1
1000
auto
  0
XRECORD
  5
F5
330
DB
100
AcDbXrecord
280
1
1000
auto
  0
XRECORD
  5
F6
330
DB
100
AcDbXrecord
280
1
1000
auto
  0
XRECORD
  5
F7
330
DB
100
AcDbXrecord
280
1
1000
auto
  0
XRECORD
  5
F8
330
DB
100
AcDbXrecord
280
1
1000
auto
  0
XRECORD
  5
F9
330
DB
100
AcDbXrecord
280
1
1000
auto
  0
XRECORD
  5
FA
330
DB
100
AcDbXrecord
280
1
1000
auto
  0
XRECORD
  5
FB
330
DB
100
AcDbXrecord
280
1
1000
auto
  0
XRECORD
  5
FC
330
DB
100
AcDbXrecord
280
1
 90
1
  0
XRECORD
  5
FD
330
DB
100
AcDbXrecord
280
1
 40
10.0
  0
XRECORD
  5
FE
330
DB
100
AcDbXrecord
280
1
 40
10.0
  0
XRECORD
  5
FF
330
DB
100
AcDbXrecord
280
1
 40
10.0
  0
XRECORD
  5
100
330
DB
100
AcDbXrecord
280
1
 40
10.0
  0
XRECORD
  5
101
330
DB
100
AcDbXrecord
280
1
290
0
  0
XRECORD
  5
102
330
DB
100
AcDbXrecord
280
1
 90
1
  0
XRECORD
  5
103
330
DB
100
AcDbXrecord
280
1
 40
-4.0321136312717485
  0
XRECORD
  5
104
330
DB
100
AcDbXrecord
280
1
 40
-34.8092064269814827
  0
XRECORD
  5
105
330
DB
100
AcDbXrecord
280
1
1000
Landscape
  0
XRECORD
  5
106
330
DB
100
AcDbXrecord
280
1
 40
297.0
  0
XRECORD
  5
107
330
DB
100
AcDbXrecord
280
1
 40
210.0
  0
XRECORD
  5
108
330
DB
100
AcDbXrecord
280
1
1000
0.8
  0
XRECORD
  5
109
330
DB
100
AcDbXrecord
280
1
290
1
  0
XRECORD
  5
10A
330
DB
100
AcDbXrecord
280
1
 90
4
  0
ENDSEC
  0
EOF
